<mxfile host="Electron" modified="2024-07-19T05:15:27.860Z" agent="Mozilla/5.0 (X11; Linux x86_64) AppleWebKit/537.36 (KHTML, like Gecko) draw.io/24.6.4 Chrome/124.0.6367.207 Electron/30.0.6 Safari/537.36" etag="zX7llYwSPmt-ae5XUlcy" version="24.6.4" type="device">
  <diagram name="Page-1" id="Ev9KHV8LbVD18_9U95kE">
    <mxGraphModel dx="12359" dy="6015" grid="1" gridSize="10" guides="1" tooltips="1" connect="0" arrows="1" fold="1" page="1" pageScale="1" pageWidth="2339" pageHeight="3300" math="0" shadow="0">
      <root>
        <mxCell id="0" />
        <mxCell id="1" parent="0" />
        <mxCell id="prq5srzqUplxRZLjjXf9-8" style="edgeStyle=orthogonalEdgeStyle;rounded=0;orthogonalLoop=1;jettySize=auto;html=1;noEdgeStyle=1;orthogonal=1;fontSize=27;fontStyle=1;strokeWidth=9;" parent="1" source="rkAUFEsCnirVAIuM3qLh-1" target="rkAUFEsCnirVAIuM3qLh-2" edge="1">
          <mxGeometry relative="1" as="geometry">
            <Array as="points">
              <mxPoint x="486.99555121527806" y="62" />
              <mxPoint x="324.78190104166674" y="138" />
            </Array>
          </mxGeometry>
        </mxCell>
        <mxCell id="prq5srzqUplxRZLjjXf9-9" style="edgeStyle=orthogonalEdgeStyle;rounded=0;orthogonalLoop=1;jettySize=auto;html=1;noEdgeStyle=1;orthogonal=1;fontSize=27;fontStyle=1;strokeWidth=9;" parent="1" source="rkAUFEsCnirVAIuM3qLh-1" target="rkAUFEsCnirVAIuM3qLh-3" edge="1">
          <mxGeometry relative="1" as="geometry">
            <Array as="points">
              <mxPoint x="576.995551215278" y="62" />
              <mxPoint x="739.2092013888893" y="138" />
            </Array>
          </mxGeometry>
        </mxCell>
        <mxCell id="rkAUFEsCnirVAIuM3qLh-1" value="&lt;font style=&quot;font-size: 27px;&quot;&gt;UAV Operator&lt;/font&gt;" style="text;html=1;align=center;verticalAlign=middle;resizable=0;points=[];autosize=1;strokeColor=none;fillColor=none;fontSize=27;fontStyle=1;strokeWidth=9;" parent="1" vertex="1">
          <mxGeometry x="436.99555121527806" width="190" height="50" as="geometry" />
        </mxCell>
        <mxCell id="prq5srzqUplxRZLjjXf9-10" style="edgeStyle=orthogonalEdgeStyle;rounded=0;orthogonalLoop=1;jettySize=auto;html=1;noEdgeStyle=1;orthogonal=1;fontSize=27;fontStyle=1;strokeWidth=9;strokeColor=#FF3333;" parent="1" source="rkAUFEsCnirVAIuM3qLh-2" target="eF_WOxwGu_8auV4gQNJt-18" edge="1">
          <mxGeometry relative="1" as="geometry">
            <Array as="points">
              <mxPoint x="284.78190104166674" y="212" />
              <mxPoint x="85" y="288" />
            </Array>
          </mxGeometry>
        </mxCell>
        <mxCell id="prq5srzqUplxRZLjjXf9-11" style="edgeStyle=orthogonalEdgeStyle;rounded=0;orthogonalLoop=1;jettySize=auto;html=1;noEdgeStyle=1;orthogonal=1;fontSize=27;fontStyle=1;strokeWidth=9;strokeColor=#FF3333;" parent="1" source="rkAUFEsCnirVAIuM3qLh-2" target="eF_WOxwGu_8auV4gQNJt-19" edge="1">
          <mxGeometry relative="1" as="geometry">
            <Array as="points">
              <mxPoint x="324.78190104166674" y="214" />
              <mxPoint x="255" y="288" />
            </Array>
          </mxGeometry>
        </mxCell>
        <mxCell id="prq5srzqUplxRZLjjXf9-12" style="edgeStyle=orthogonalEdgeStyle;rounded=0;orthogonalLoop=1;jettySize=auto;html=1;noEdgeStyle=1;orthogonal=1;fontSize=27;fontStyle=1;strokeWidth=9;strokeColor=#FF3333;" parent="1" source="rkAUFEsCnirVAIuM3qLh-2" target="eF_WOxwGu_8auV4gQNJt-20" edge="1">
          <mxGeometry relative="1" as="geometry">
            <Array as="points">
              <mxPoint x="364.78190104166674" y="212" />
              <mxPoint x="425" y="288" />
            </Array>
          </mxGeometry>
        </mxCell>
        <mxCell id="rkAUFEsCnirVAIuM3qLh-2" value="&lt;font style=&quot;font-size: 27px;&quot;&gt;Affiliation&lt;/font&gt;" style="text;html=1;align=center;verticalAlign=middle;resizable=0;points=[];autosize=1;strokeColor=none;fillColor=none;fontSize=27;fontStyle=1;strokeWidth=9;" parent="1" vertex="1">
          <mxGeometry x="259.78190104166674" y="150" width="130" height="50" as="geometry" />
        </mxCell>
        <mxCell id="prq5srzqUplxRZLjjXf9-13" style="edgeStyle=orthogonalEdgeStyle;rounded=0;orthogonalLoop=1;jettySize=auto;html=1;noEdgeStyle=1;orthogonal=1;fontSize=27;fontStyle=1;strokeWidth=9;strokeColor=#0000FF;" parent="1" source="rkAUFEsCnirVAIuM3qLh-3" target="eF_WOxwGu_8auV4gQNJt-22" edge="1">
          <mxGeometry relative="1" as="geometry">
            <Array as="points">
              <mxPoint x="711.7092013888893" y="212" />
              <mxPoint x="686.0000000000002" y="288" />
            </Array>
          </mxGeometry>
        </mxCell>
        <mxCell id="prq5srzqUplxRZLjjXf9-14" style="edgeStyle=orthogonalEdgeStyle;rounded=0;orthogonalLoop=1;jettySize=auto;html=1;noEdgeStyle=1;orthogonal=1;fontSize=27;fontStyle=1;strokeWidth=9;strokeColor=#0000FF;" parent="1" source="rkAUFEsCnirVAIuM3qLh-3" target="eF_WOxwGu_8auV4gQNJt-21" edge="1">
          <mxGeometry relative="1" as="geometry">
            <Array as="points">
              <mxPoint x="766.7092013888893" y="212" />
              <mxPoint x="997.5000000000006" y="288" />
            </Array>
          </mxGeometry>
        </mxCell>
        <mxCell id="rkAUFEsCnirVAIuM3qLh-3" value="&lt;font style=&quot;font-size: 27px;&quot;&gt;Records&lt;/font&gt;" style="text;html=1;align=center;verticalAlign=middle;resizable=0;points=[];autosize=1;strokeColor=none;fillColor=none;fontSize=27;fontStyle=1;strokeWidth=9;" parent="1" vertex="1">
          <mxGeometry x="679.2092013888893" y="150" width="120" height="50" as="geometry" />
        </mxCell>
        <mxCell id="prq5srzqUplxRZLjjXf9-15" style="edgeStyle=orthogonalEdgeStyle;rounded=0;orthogonalLoop=1;jettySize=auto;html=1;noEdgeStyle=1;orthogonal=1;fontSize=27;fontStyle=1;strokeWidth=9;" parent="1" source="rkAUFEsCnirVAIuM3qLh-4" target="eF_WOxwGu_8auV4gQNJt-3" edge="1">
          <mxGeometry relative="1" as="geometry">
            <Array as="points">
              <mxPoint x="1411.8888888888896" y="62" />
              <mxPoint x="1411.8888888888896" y="138" />
            </Array>
          </mxGeometry>
        </mxCell>
        <mxCell id="rkAUFEsCnirVAIuM3qLh-4" value="&lt;font style=&quot;font-size: 27px;&quot;&gt;Authentication Status&lt;/font&gt;" style="text;html=1;align=center;verticalAlign=middle;resizable=0;points=[];autosize=1;strokeColor=none;fillColor=none;fontSize=27;fontStyle=1;strokeWidth=9;" parent="1" vertex="1">
          <mxGeometry x="1271.8888888888896" width="280" height="50" as="geometry" />
        </mxCell>
        <mxCell id="prq5srzqUplxRZLjjXf9-16" style="edgeStyle=orthogonalEdgeStyle;rounded=0;orthogonalLoop=1;jettySize=auto;html=1;noEdgeStyle=1;orthogonal=1;fontSize=27;fontStyle=1;strokeWidth=9;strokeColor=#00FF00;" parent="1" source="eF_WOxwGu_8auV4gQNJt-3" target="eF_WOxwGu_8auV4gQNJt-24" edge="1">
          <mxGeometry relative="1" as="geometry">
            <Array as="points">
              <mxPoint x="1366.8888888888896" y="212" />
              <mxPoint x="1288.0000000000007" y="288" />
            </Array>
          </mxGeometry>
        </mxCell>
        <mxCell id="prq5srzqUplxRZLjjXf9-17" style="edgeStyle=orthogonalEdgeStyle;rounded=0;orthogonalLoop=1;jettySize=auto;html=1;noEdgeStyle=1;orthogonal=1;fontSize=27;fontStyle=1;strokeWidth=9;strokeColor=#00FF00;" parent="1" source="eF_WOxwGu_8auV4gQNJt-3" target="eF_WOxwGu_8auV4gQNJt-23" edge="1">
          <mxGeometry relative="1" as="geometry">
            <Array as="points">
              <mxPoint x="1456.8888888888896" y="212" />
              <mxPoint x="1533.0000000000007" y="288" />
            </Array>
          </mxGeometry>
        </mxCell>
        <mxCell id="eF_WOxwGu_8auV4gQNJt-3" value="Message Auth" style="text;html=1;align=center;verticalAlign=middle;resizable=0;points=[];autosize=1;strokeColor=none;fillColor=none;fontSize=27;fontStyle=1;strokeWidth=9;" parent="1" vertex="1">
          <mxGeometry x="1316.8888888888896" y="150" width="190" height="50" as="geometry" />
        </mxCell>
        <mxCell id="prq5srzqUplxRZLjjXf9-18" style="edgeStyle=orthogonalEdgeStyle;rounded=0;orthogonalLoop=1;jettySize=auto;html=1;noEdgeStyle=1;orthogonal=1;fontSize=27;fontStyle=1;strokeWidth=9;" parent="1" source="eF_WOxwGu_8auV4gQNJt-4" target="eF_WOxwGu_8auV4gQNJt-5" edge="1">
          <mxGeometry relative="1" as="geometry">
            <Array as="points">
              <mxPoint x="1927.3827160493836" y="62" />
              <mxPoint x="1883.2160493827168" y="138" />
            </Array>
          </mxGeometry>
        </mxCell>
        <mxCell id="prq5srzqUplxRZLjjXf9-19" style="edgeStyle=orthogonalEdgeStyle;rounded=0;orthogonalLoop=1;jettySize=auto;html=1;noEdgeStyle=1;orthogonal=1;fontSize=27;fontStyle=1;strokeWidth=9;" parent="1" source="eF_WOxwGu_8auV4gQNJt-4" target="eF_WOxwGu_8auV4gQNJt-6" edge="1">
          <mxGeometry relative="1" as="geometry">
            <Array as="points">
              <mxPoint x="2012.3827160493838" y="62" />
              <mxPoint x="2056.5493827160503" y="138" />
            </Array>
          </mxGeometry>
        </mxCell>
        <mxCell id="eF_WOxwGu_8auV4gQNJt-4" value="&lt;font style=&quot;font-size: 27px;&quot;&gt;Observations&lt;/font&gt;" style="text;html=1;align=center;verticalAlign=middle;resizable=0;points=[];autosize=1;strokeColor=none;fillColor=none;fontSize=27;fontStyle=1;strokeWidth=9;" parent="1" vertex="1">
          <mxGeometry x="1879.8827160493836" width="180" height="50" as="geometry" />
        </mxCell>
        <mxCell id="prq5srzqUplxRZLjjXf9-20" style="edgeStyle=orthogonalEdgeStyle;rounded=0;orthogonalLoop=1;jettySize=auto;html=1;noEdgeStyle=1;orthogonal=1;fontSize=27;fontStyle=1;strokeWidth=9;strokeColor=#00FFFF;" parent="1" source="eF_WOxwGu_8auV4gQNJt-5" target="eF_WOxwGu_8auV4gQNJt-26" edge="1">
          <mxGeometry relative="1" as="geometry">
            <Array as="points">
              <mxPoint x="1860.7160493827168" y="212" />
              <mxPoint x="1763.0000000000007" y="288" />
            </Array>
          </mxGeometry>
        </mxCell>
        <mxCell id="prq5srzqUplxRZLjjXf9-21" style="edgeStyle=orthogonalEdgeStyle;rounded=0;orthogonalLoop=1;jettySize=auto;html=1;noEdgeStyle=1;orthogonal=1;fontSize=27;fontStyle=1;strokeWidth=9;strokeColor=#00FFFF;" parent="1" source="eF_WOxwGu_8auV4gQNJt-5" target="eF_WOxwGu_8auV4gQNJt-25" edge="1">
          <mxGeometry relative="1" as="geometry">
            <Array as="points">
              <mxPoint x="1905.7160493827168" y="212" />
              <mxPoint x="1918.0000000000007" y="288" />
            </Array>
          </mxGeometry>
        </mxCell>
        <mxCell id="eF_WOxwGu_8auV4gQNJt-5" value="Visual" style="text;html=1;align=center;verticalAlign=middle;resizable=0;points=[];autosize=1;strokeColor=none;fillColor=none;fontSize=27;fontStyle=1;strokeWidth=9;" parent="1" vertex="1">
          <mxGeometry x="1833.2160493827168" y="150" width="100" height="50" as="geometry" />
        </mxCell>
        <mxCell id="prq5srzqUplxRZLjjXf9-22" style="edgeStyle=orthogonalEdgeStyle;rounded=0;orthogonalLoop=1;jettySize=auto;html=1;noEdgeStyle=1;orthogonal=1;fontSize=27;fontStyle=1;strokeWidth=9;strokeColor=#CCCC00;" parent="1" source="eF_WOxwGu_8auV4gQNJt-6" target="eF_WOxwGu_8auV4gQNJt-28" edge="1">
          <mxGeometry relative="1" as="geometry">
            <Array as="points">
              <mxPoint x="2091.5493827160503" y="212" />
              <mxPoint x="2148.000000000001" y="288" />
            </Array>
          </mxGeometry>
        </mxCell>
        <mxCell id="prq5srzqUplxRZLjjXf9-23" style="edgeStyle=orthogonalEdgeStyle;rounded=0;orthogonalLoop=1;jettySize=auto;html=1;noEdgeStyle=1;orthogonal=1;fontSize=27;fontStyle=1;strokeWidth=9;strokeColor=#CCCC00;" parent="1" source="eF_WOxwGu_8auV4gQNJt-6" target="eF_WOxwGu_8auV4gQNJt-27" edge="1">
          <mxGeometry relative="1" as="geometry">
            <Array as="points">
              <mxPoint x="2021.5493827160503" y="212" />
              <mxPoint x="2053.000000000001" y="288" />
            </Array>
          </mxGeometry>
        </mxCell>
        <mxCell id="eF_WOxwGu_8auV4gQNJt-6" value="Remote ID" style="text;html=1;align=center;verticalAlign=middle;resizable=0;points=[];autosize=1;strokeColor=none;fillColor=none;fontSize=27;fontStyle=1;strokeWidth=9;" parent="1" vertex="1">
          <mxGeometry x="1981.5493827160503" y="150" width="150" height="50" as="geometry" />
        </mxCell>
        <mxCell id="prq5srzqUplxRZLjjXf9-24" style="edgeStyle=orthogonalEdgeStyle;rounded=0;orthogonalLoop=1;jettySize=auto;html=1;noEdgeStyle=1;orthogonal=1;fontSize=27;fontStyle=1;strokeWidth=9;" parent="1" source="eF_WOxwGu_8auV4gQNJt-8" target="eF_WOxwGu_8auV4gQNJt-9" edge="1">
          <mxGeometry relative="1" as="geometry">
            <Array as="points">
              <mxPoint x="2360.500000000001" y="62" />
              <mxPoint x="2328.000000000001" y="138" />
            </Array>
          </mxGeometry>
        </mxCell>
        <mxCell id="prq5srzqUplxRZLjjXf9-25" style="edgeStyle=orthogonalEdgeStyle;rounded=0;orthogonalLoop=1;jettySize=auto;html=1;noEdgeStyle=1;orthogonal=1;fontSize=27;fontStyle=1;strokeWidth=9;" parent="1" source="eF_WOxwGu_8auV4gQNJt-8" target="eF_WOxwGu_8auV4gQNJt-10" edge="1">
          <mxGeometry relative="1" as="geometry">
            <Array as="points">
              <mxPoint x="2475.500000000001" y="62" />
              <mxPoint x="2508.000000000001" y="138" />
            </Array>
          </mxGeometry>
        </mxCell>
        <mxCell id="eF_WOxwGu_8auV4gQNJt-8" value="Flight-Plan Status" style="text;html=1;align=center;verticalAlign=middle;resizable=0;points=[];autosize=1;strokeColor=none;fillColor=none;fontSize=27;fontStyle=1;strokeWidth=9;" parent="1" vertex="1">
          <mxGeometry x="2298.000000000001" width="240" height="50" as="geometry" />
        </mxCell>
        <mxCell id="prq5srzqUplxRZLjjXf9-26" style="edgeStyle=orthogonalEdgeStyle;rounded=0;orthogonalLoop=1;jettySize=auto;html=1;noEdgeStyle=1;orthogonal=1;fontSize=27;fontStyle=1;strokeWidth=9;strokeColor=#CC0066;" parent="1" source="eF_WOxwGu_8auV4gQNJt-9" target="eF_WOxwGu_8auV4gQNJt-30" edge="1">
          <mxGeometry relative="1" as="geometry">
            <Array as="points">
              <mxPoint x="2293.000000000001" y="212" />
              <mxPoint x="2278.000000000001" y="288" />
            </Array>
          </mxGeometry>
        </mxCell>
        <mxCell id="prq5srzqUplxRZLjjXf9-27" style="edgeStyle=orthogonalEdgeStyle;rounded=0;orthogonalLoop=1;jettySize=auto;html=1;noEdgeStyle=1;orthogonal=1;fontSize=27;fontStyle=1;strokeWidth=9;strokeColor=#CC0066;" parent="1" source="eF_WOxwGu_8auV4gQNJt-9" target="eF_WOxwGu_8auV4gQNJt-29" edge="1">
          <mxGeometry relative="1" as="geometry">
            <Array as="points">
              <mxPoint x="2363.000000000001" y="212" />
              <mxPoint x="2373.000000000001" y="288" />
            </Array>
          </mxGeometry>
        </mxCell>
        <mxCell id="eF_WOxwGu_8auV4gQNJt-9" value="Availability" style="text;html=1;align=center;verticalAlign=middle;resizable=0;points=[];autosize=1;strokeColor=none;fillColor=none;fontSize=27;fontStyle=1;strokeWidth=9;" parent="1" vertex="1">
          <mxGeometry x="2253.000000000001" y="150" width="150" height="50" as="geometry" />
        </mxCell>
        <mxCell id="prq5srzqUplxRZLjjXf9-28" style="edgeStyle=orthogonalEdgeStyle;rounded=0;orthogonalLoop=1;jettySize=auto;html=1;noEdgeStyle=1;orthogonal=1;fontSize=27;fontStyle=1;strokeWidth=9;strokeColor=#009900;" parent="1" source="eF_WOxwGu_8auV4gQNJt-10" target="eF_WOxwGu_8auV4gQNJt-32" edge="1">
          <mxGeometry relative="1" as="geometry">
            <Array as="points">
              <mxPoint x="2473.000000000001" y="212" />
              <mxPoint x="2468.000000000001" y="288" />
            </Array>
          </mxGeometry>
        </mxCell>
        <mxCell id="prq5srzqUplxRZLjjXf9-29" style="edgeStyle=orthogonalEdgeStyle;rounded=0;orthogonalLoop=1;jettySize=auto;html=1;noEdgeStyle=1;orthogonal=1;fontSize=27;fontStyle=1;strokeWidth=9;strokeColor=#009900;" parent="1" source="eF_WOxwGu_8auV4gQNJt-10" target="eF_WOxwGu_8auV4gQNJt-31" edge="1">
          <mxGeometry relative="1" as="geometry">
            <Array as="points">
              <mxPoint x="2543.000000000001" y="212" />
              <mxPoint x="2563.000000000001" y="288" />
            </Array>
          </mxGeometry>
        </mxCell>
        <mxCell id="eF_WOxwGu_8auV4gQNJt-10" value="Conformity" style="text;html=1;align=center;verticalAlign=middle;resizable=0;points=[];autosize=1;strokeColor=none;fillColor=none;fontSize=27;fontStyle=1;strokeWidth=9;" parent="1" vertex="1">
          <mxGeometry x="2433.000000000001" y="150" width="150" height="50" as="geometry" />
        </mxCell>
        <mxCell id="prq5srzqUplxRZLjjXf9-36" style="edgeStyle=orthogonalEdgeStyle;rounded=0;orthogonalLoop=1;jettySize=auto;html=1;noEdgeStyle=1;orthogonal=1;fontSize=27;fontStyle=1;strokeWidth=9;" parent="1" source="eF_WOxwGu_8auV4gQNJt-11" target="eF_WOxwGu_8auV4gQNJt-12" edge="1">
          <mxGeometry relative="1" as="geometry">
            <Array as="points">
              <mxPoint x="3496.500000000001" y="62" />
              <mxPoint x="3505.000000000001" y="138" />
            </Array>
          </mxGeometry>
        </mxCell>
        <mxCell id="prq5srzqUplxRZLjjXf9-37" style="edgeStyle=orthogonalEdgeStyle;rounded=0;orthogonalLoop=1;jettySize=auto;html=1;noEdgeStyle=1;orthogonal=1;fontSize=27;fontStyle=1;strokeWidth=9;" parent="1" source="eF_WOxwGu_8auV4gQNJt-11" target="eF_WOxwGu_8auV4gQNJt-13" edge="1">
          <mxGeometry relative="1" as="geometry">
            <Array as="points">
              <mxPoint x="3648.500000000001" y="62" />
              <mxPoint x="3640.000000000001" y="138" />
            </Array>
          </mxGeometry>
        </mxCell>
        <mxCell id="eF_WOxwGu_8auV4gQNJt-11" value="Environment Conditions" style="text;html=1;align=center;verticalAlign=middle;resizable=0;points=[];autosize=1;strokeColor=none;fillColor=none;fontSize=27;fontStyle=1;strokeWidth=9;" parent="1" vertex="1">
          <mxGeometry x="3417.5000000000014" width="310" height="50" as="geometry" />
        </mxCell>
        <mxCell id="prq5srzqUplxRZLjjXf9-38" style="edgeStyle=orthogonalEdgeStyle;rounded=0;orthogonalLoop=1;jettySize=auto;html=1;noEdgeStyle=1;orthogonal=1;fontSize=27;fontStyle=1;strokeWidth=9;strokeColor=#FF8000;" parent="1" source="eF_WOxwGu_8auV4gQNJt-12" target="eF_WOxwGu_8auV4gQNJt-36" edge="1">
          <mxGeometry relative="1" as="geometry">
            <Array as="points">
              <mxPoint x="3505.000000000001" y="212" />
              <mxPoint x="3475.000000000001" y="288" />
            </Array>
          </mxGeometry>
        </mxCell>
        <mxCell id="eF_WOxwGu_8auV4gQNJt-12" value="Weather" style="text;html=1;align=center;verticalAlign=middle;resizable=0;points=[];autosize=1;strokeColor=none;fillColor=none;fontSize=27;fontStyle=1;strokeWidth=9;" parent="1" vertex="1">
          <mxGeometry x="3440.000000000001" y="150" width="130" height="50" as="geometry" />
        </mxCell>
        <mxCell id="prq5srzqUplxRZLjjXf9-39" style="edgeStyle=orthogonalEdgeStyle;rounded=0;orthogonalLoop=1;jettySize=auto;html=1;noEdgeStyle=1;orthogonal=1;fontSize=27;fontStyle=1;strokeWidth=9;strokeColor=#7F00FF;" parent="1" source="eF_WOxwGu_8auV4gQNJt-13" target="eF_WOxwGu_8auV4gQNJt-37" edge="1">
          <mxGeometry relative="1" as="geometry">
            <Array as="points">
              <mxPoint x="3640.000000000001" y="212" />
              <mxPoint x="3645.000000000001" y="288" />
            </Array>
          </mxGeometry>
        </mxCell>
        <mxCell id="eF_WOxwGu_8auV4gQNJt-13" value="Time" style="text;html=1;align=center;verticalAlign=middle;resizable=0;points=[];autosize=1;strokeColor=none;fillColor=none;fontSize=27;fontStyle=1;strokeWidth=9;" parent="1" vertex="1">
          <mxGeometry x="3600.000000000001" y="150" width="80" height="50" as="geometry" />
        </mxCell>
        <mxCell id="prq5srzqUplxRZLjjXf9-30" style="edgeStyle=orthogonalEdgeStyle;rounded=0;orthogonalLoop=1;jettySize=auto;html=1;noEdgeStyle=1;orthogonal=1;fontSize=27;fontStyle=1;strokeWidth=9;" parent="1" source="eF_WOxwGu_8auV4gQNJt-14" target="eF_WOxwGu_8auV4gQNJt-15" edge="1">
          <mxGeometry relative="1" as="geometry">
            <Array as="points">
              <mxPoint x="2996.333333333335" y="62" />
              <mxPoint x="2783.000000000001" y="138" />
            </Array>
          </mxGeometry>
        </mxCell>
        <mxCell id="prq5srzqUplxRZLjjXf9-31" style="edgeStyle=orthogonalEdgeStyle;rounded=0;orthogonalLoop=1;jettySize=auto;html=1;noEdgeStyle=1;orthogonal=1;fontSize=27;fontStyle=1;strokeWidth=9;" parent="1" source="eF_WOxwGu_8auV4gQNJt-14" target="eF_WOxwGu_8auV4gQNJt-17" edge="1">
          <mxGeometry relative="1" as="geometry">
            <Array as="points">
              <mxPoint x="3033.0000000000014" y="64" />
              <mxPoint x="3033.000000000001" y="138" />
            </Array>
          </mxGeometry>
        </mxCell>
        <mxCell id="prq5srzqUplxRZLjjXf9-32" style="edgeStyle=orthogonalEdgeStyle;rounded=0;orthogonalLoop=1;jettySize=auto;html=1;noEdgeStyle=1;orthogonal=1;fontSize=27;fontStyle=1;strokeWidth=9;" parent="1" source="eF_WOxwGu_8auV4gQNJt-14" target="eF_WOxwGu_8auV4gQNJt-16" edge="1">
          <mxGeometry relative="1" as="geometry">
            <Array as="points">
              <mxPoint x="3069.666666666668" y="62" />
              <mxPoint x="3248.000000000001" y="138" />
            </Array>
          </mxGeometry>
        </mxCell>
        <mxCell id="eF_WOxwGu_8auV4gQNJt-14" value="Context" style="text;html=1;align=center;verticalAlign=middle;resizable=0;points=[];autosize=1;strokeColor=none;fillColor=none;fontSize=27;fontStyle=1;strokeWidth=9;" parent="1" vertex="1">
          <mxGeometry x="2973.0000000000014" width="120" height="50" as="geometry" />
        </mxCell>
        <mxCell id="prq5srzqUplxRZLjjXf9-33" style="edgeStyle=orthogonalEdgeStyle;rounded=0;orthogonalLoop=1;jettySize=auto;html=1;noEdgeStyle=1;orthogonal=1;fontSize=27;fontStyle=1;strokeWidth=9;strokeColor=#FF0000;" parent="1" source="eF_WOxwGu_8auV4gQNJt-15" target="eF_WOxwGu_8auV4gQNJt-33" edge="1">
          <mxGeometry relative="1" as="geometry">
            <Array as="points">
              <mxPoint x="2783.000000000001" y="212" />
              <mxPoint x="2783.000000000001" y="288" />
            </Array>
          </mxGeometry>
        </mxCell>
        <mxCell id="eF_WOxwGu_8auV4gQNJt-15" value="Geospatial Location" style="text;html=1;align=center;verticalAlign=middle;resizable=0;points=[];autosize=1;strokeColor=none;fillColor=none;fontSize=27;fontStyle=1;strokeWidth=9;" parent="1" vertex="1">
          <mxGeometry x="2653.000000000001" y="150" width="260" height="50" as="geometry" />
        </mxCell>
        <mxCell id="prq5srzqUplxRZLjjXf9-35" style="edgeStyle=orthogonalEdgeStyle;rounded=0;orthogonalLoop=1;jettySize=auto;html=1;noEdgeStyle=1;orthogonal=1;fontSize=27;fontStyle=1;strokeWidth=9;strokeColor=#00FF00;" parent="1" source="eF_WOxwGu_8auV4gQNJt-16" target="eF_WOxwGu_8auV4gQNJt-35" edge="1">
          <mxGeometry relative="1" as="geometry">
            <Array as="points">
              <mxPoint x="3248.000000000001" y="212" />
              <mxPoint x="3248.000000000001" y="288" />
            </Array>
          </mxGeometry>
        </mxCell>
        <mxCell id="eF_WOxwGu_8auV4gQNJt-16" value="No-Fly Zones" style="text;html=1;align=center;verticalAlign=middle;resizable=0;points=[];autosize=1;strokeColor=none;fillColor=none;fontSize=27;fontStyle=1;strokeWidth=9;" parent="1" vertex="1">
          <mxGeometry x="3153.000000000001" y="150" width="190" height="50" as="geometry" />
        </mxCell>
        <mxCell id="prq5srzqUplxRZLjjXf9-34" style="edgeStyle=orthogonalEdgeStyle;rounded=0;orthogonalLoop=1;jettySize=auto;html=1;noEdgeStyle=1;orthogonal=1;fontSize=27;fontStyle=1;strokeWidth=9;strokeColor=#001eff;" parent="1" source="eF_WOxwGu_8auV4gQNJt-17" target="eF_WOxwGu_8auV4gQNJt-34" edge="1">
          <mxGeometry relative="1" as="geometry">
            <Array as="points">
              <mxPoint x="3033.000000000001" y="212" />
              <mxPoint x="3033.000000000001" y="288" />
            </Array>
          </mxGeometry>
        </mxCell>
        <mxCell id="eF_WOxwGu_8auV4gQNJt-17" value="UAV Mission" style="text;html=1;align=center;verticalAlign=middle;resizable=0;points=[];autosize=1;strokeColor=none;fillColor=none;fontSize=27;fontStyle=1;strokeWidth=9;" parent="1" vertex="1">
          <mxGeometry x="2943.000000000001" y="150" width="180" height="50" as="geometry" />
        </mxCell>
        <mxCell id="xEmapFu_POOf8D5ossAb-47" style="edgeStyle=orthogonalEdgeStyle;rounded=0;orthogonalLoop=1;jettySize=auto;html=1;" parent="1" source="eF_WOxwGu_8auV4gQNJt-18" target="eF_WOxwGu_8auV4gQNJt-22" edge="1">
          <mxGeometry relative="1" as="geometry" />
        </mxCell>
        <mxCell id="xEmapFu_POOf8D5ossAb-48" style="edgeStyle=orthogonalEdgeStyle;rounded=0;orthogonalLoop=1;jettySize=auto;html=1;" parent="1" source="eF_WOxwGu_8auV4gQNJt-18" target="eF_WOxwGu_8auV4gQNJt-21" edge="1">
          <mxGeometry relative="1" as="geometry" />
        </mxCell>
        <mxCell id="xEmapFu_POOf8D5ossAb-49" style="edgeStyle=orthogonalEdgeStyle;rounded=0;orthogonalLoop=1;jettySize=auto;html=1;" parent="1" source="eF_WOxwGu_8auV4gQNJt-18" target="eF_WOxwGu_8auV4gQNJt-24" edge="1">
          <mxGeometry relative="1" as="geometry" />
        </mxCell>
        <mxCell id="xEmapFu_POOf8D5ossAb-50" style="edgeStyle=orthogonalEdgeStyle;rounded=0;orthogonalLoop=1;jettySize=auto;html=1;" parent="1" source="eF_WOxwGu_8auV4gQNJt-18" target="eF_WOxwGu_8auV4gQNJt-23" edge="1">
          <mxGeometry relative="1" as="geometry" />
        </mxCell>
        <mxCell id="xEmapFu_POOf8D5ossAb-51" style="edgeStyle=orthogonalEdgeStyle;rounded=0;orthogonalLoop=1;jettySize=auto;html=1;" parent="1" source="eF_WOxwGu_8auV4gQNJt-18" target="eF_WOxwGu_8auV4gQNJt-26" edge="1">
          <mxGeometry relative="1" as="geometry" />
        </mxCell>
        <mxCell id="xEmapFu_POOf8D5ossAb-52" style="edgeStyle=orthogonalEdgeStyle;rounded=0;orthogonalLoop=1;jettySize=auto;html=1;" parent="1" source="eF_WOxwGu_8auV4gQNJt-18" target="eF_WOxwGu_8auV4gQNJt-25" edge="1">
          <mxGeometry relative="1" as="geometry" />
        </mxCell>
        <mxCell id="xEmapFu_POOf8D5ossAb-53" style="edgeStyle=orthogonalEdgeStyle;rounded=0;orthogonalLoop=1;jettySize=auto;html=1;" parent="1" source="eF_WOxwGu_8auV4gQNJt-18" target="eF_WOxwGu_8auV4gQNJt-27" edge="1">
          <mxGeometry relative="1" as="geometry" />
        </mxCell>
        <mxCell id="xEmapFu_POOf8D5ossAb-54" style="edgeStyle=orthogonalEdgeStyle;rounded=0;orthogonalLoop=1;jettySize=auto;html=1;" parent="1" source="eF_WOxwGu_8auV4gQNJt-18" target="eF_WOxwGu_8auV4gQNJt-28" edge="1">
          <mxGeometry relative="1" as="geometry" />
        </mxCell>
        <mxCell id="xEmapFu_POOf8D5ossAb-55" style="edgeStyle=orthogonalEdgeStyle;rounded=0;orthogonalLoop=1;jettySize=auto;html=1;" parent="1" source="eF_WOxwGu_8auV4gQNJt-18" target="eF_WOxwGu_8auV4gQNJt-30" edge="1">
          <mxGeometry relative="1" as="geometry" />
        </mxCell>
        <mxCell id="xEmapFu_POOf8D5ossAb-56" style="edgeStyle=orthogonalEdgeStyle;rounded=0;orthogonalLoop=1;jettySize=auto;html=1;" parent="1" source="eF_WOxwGu_8auV4gQNJt-18" target="eF_WOxwGu_8auV4gQNJt-29" edge="1">
          <mxGeometry relative="1" as="geometry" />
        </mxCell>
        <mxCell id="xEmapFu_POOf8D5ossAb-57" style="edgeStyle=orthogonalEdgeStyle;rounded=0;orthogonalLoop=1;jettySize=auto;html=1;" parent="1" source="eF_WOxwGu_8auV4gQNJt-18" target="eF_WOxwGu_8auV4gQNJt-32" edge="1">
          <mxGeometry relative="1" as="geometry" />
        </mxCell>
        <mxCell id="xEmapFu_POOf8D5ossAb-58" style="edgeStyle=orthogonalEdgeStyle;rounded=0;orthogonalLoop=1;jettySize=auto;html=1;" parent="1" source="eF_WOxwGu_8auV4gQNJt-18" target="eF_WOxwGu_8auV4gQNJt-31" edge="1">
          <mxGeometry relative="1" as="geometry" />
        </mxCell>
        <mxCell id="xEmapFu_POOf8D5ossAb-59" style="edgeStyle=orthogonalEdgeStyle;rounded=0;orthogonalLoop=1;jettySize=auto;html=1;" parent="1" source="eF_WOxwGu_8auV4gQNJt-18" target="eF_WOxwGu_8auV4gQNJt-33" edge="1">
          <mxGeometry relative="1" as="geometry" />
        </mxCell>
        <mxCell id="xEmapFu_POOf8D5ossAb-60" style="edgeStyle=orthogonalEdgeStyle;rounded=0;orthogonalLoop=1;jettySize=auto;html=1;" parent="1" source="eF_WOxwGu_8auV4gQNJt-18" target="eF_WOxwGu_8auV4gQNJt-34" edge="1">
          <mxGeometry relative="1" as="geometry" />
        </mxCell>
        <mxCell id="xEmapFu_POOf8D5ossAb-61" style="edgeStyle=orthogonalEdgeStyle;rounded=0;orthogonalLoop=1;jettySize=auto;html=1;" parent="1" source="eF_WOxwGu_8auV4gQNJt-18" target="eF_WOxwGu_8auV4gQNJt-35" edge="1">
          <mxGeometry relative="1" as="geometry" />
        </mxCell>
        <mxCell id="xEmapFu_POOf8D5ossAb-62" style="edgeStyle=orthogonalEdgeStyle;rounded=0;orthogonalLoop=1;jettySize=auto;html=1;" parent="1" source="eF_WOxwGu_8auV4gQNJt-18" target="eF_WOxwGu_8auV4gQNJt-36" edge="1">
          <mxGeometry relative="1" as="geometry" />
        </mxCell>
        <mxCell id="xEmapFu_POOf8D5ossAb-63" style="edgeStyle=orthogonalEdgeStyle;rounded=0;orthogonalLoop=1;jettySize=auto;html=1;" parent="1" source="eF_WOxwGu_8auV4gQNJt-19" target="eF_WOxwGu_8auV4gQNJt-37" edge="1">
          <mxGeometry relative="1" as="geometry" />
        </mxCell>
        <mxCell id="eF_WOxwGu_8auV4gQNJt-18" value="Commercial" style="text;html=1;align=center;verticalAlign=middle;resizable=0;points=[];autosize=1;strokeColor=none;fillColor=none;fontSize=27;fontStyle=1;strokeWidth=9;" parent="1" vertex="1">
          <mxGeometry x="-10" y="2890" width="170" height="50" as="geometry" />
        </mxCell>
        <mxCell id="xEmapFu_POOf8D5ossAb-64" style="edgeStyle=orthogonalEdgeStyle;rounded=0;orthogonalLoop=1;jettySize=auto;html=1;" parent="1" source="eF_WOxwGu_8auV4gQNJt-19" target="eF_WOxwGu_8auV4gQNJt-22" edge="1">
          <mxGeometry relative="1" as="geometry" />
        </mxCell>
        <mxCell id="xEmapFu_POOf8D5ossAb-65" style="edgeStyle=orthogonalEdgeStyle;rounded=0;orthogonalLoop=1;jettySize=auto;html=1;" parent="1" source="eF_WOxwGu_8auV4gQNJt-19" target="eF_WOxwGu_8auV4gQNJt-21" edge="1">
          <mxGeometry relative="1" as="geometry" />
        </mxCell>
        <mxCell id="xEmapFu_POOf8D5ossAb-66" style="edgeStyle=orthogonalEdgeStyle;rounded=0;orthogonalLoop=1;jettySize=auto;html=1;" parent="1" source="eF_WOxwGu_8auV4gQNJt-19" target="eF_WOxwGu_8auV4gQNJt-24" edge="1">
          <mxGeometry relative="1" as="geometry" />
        </mxCell>
        <mxCell id="xEmapFu_POOf8D5ossAb-67" style="edgeStyle=orthogonalEdgeStyle;rounded=0;orthogonalLoop=1;jettySize=auto;html=1;" parent="1" source="eF_WOxwGu_8auV4gQNJt-19" target="eF_WOxwGu_8auV4gQNJt-23" edge="1">
          <mxGeometry relative="1" as="geometry" />
        </mxCell>
        <mxCell id="xEmapFu_POOf8D5ossAb-68" style="edgeStyle=orthogonalEdgeStyle;rounded=0;orthogonalLoop=1;jettySize=auto;html=1;" parent="1" source="eF_WOxwGu_8auV4gQNJt-19" target="eF_WOxwGu_8auV4gQNJt-26" edge="1">
          <mxGeometry relative="1" as="geometry" />
        </mxCell>
        <mxCell id="xEmapFu_POOf8D5ossAb-69" style="edgeStyle=orthogonalEdgeStyle;rounded=0;orthogonalLoop=1;jettySize=auto;html=1;" parent="1" source="eF_WOxwGu_8auV4gQNJt-19" target="eF_WOxwGu_8auV4gQNJt-25" edge="1">
          <mxGeometry relative="1" as="geometry" />
        </mxCell>
        <mxCell id="xEmapFu_POOf8D5ossAb-70" style="edgeStyle=orthogonalEdgeStyle;rounded=0;orthogonalLoop=1;jettySize=auto;html=1;" parent="1" source="eF_WOxwGu_8auV4gQNJt-19" target="eF_WOxwGu_8auV4gQNJt-27" edge="1">
          <mxGeometry relative="1" as="geometry" />
        </mxCell>
        <mxCell id="xEmapFu_POOf8D5ossAb-71" style="edgeStyle=orthogonalEdgeStyle;rounded=0;orthogonalLoop=1;jettySize=auto;html=1;" parent="1" source="eF_WOxwGu_8auV4gQNJt-19" target="eF_WOxwGu_8auV4gQNJt-28" edge="1">
          <mxGeometry relative="1" as="geometry" />
        </mxCell>
        <mxCell id="xEmapFu_POOf8D5ossAb-72" style="edgeStyle=orthogonalEdgeStyle;rounded=0;orthogonalLoop=1;jettySize=auto;html=1;" parent="1" source="eF_WOxwGu_8auV4gQNJt-19" target="eF_WOxwGu_8auV4gQNJt-30" edge="1">
          <mxGeometry relative="1" as="geometry" />
        </mxCell>
        <mxCell id="xEmapFu_POOf8D5ossAb-73" style="edgeStyle=orthogonalEdgeStyle;rounded=0;orthogonalLoop=1;jettySize=auto;html=1;" parent="1" source="eF_WOxwGu_8auV4gQNJt-19" target="eF_WOxwGu_8auV4gQNJt-29" edge="1">
          <mxGeometry relative="1" as="geometry" />
        </mxCell>
        <mxCell id="xEmapFu_POOf8D5ossAb-74" style="edgeStyle=orthogonalEdgeStyle;rounded=0;orthogonalLoop=1;jettySize=auto;html=1;" parent="1" source="eF_WOxwGu_8auV4gQNJt-19" target="eF_WOxwGu_8auV4gQNJt-32" edge="1">
          <mxGeometry relative="1" as="geometry" />
        </mxCell>
        <mxCell id="xEmapFu_POOf8D5ossAb-77" style="edgeStyle=orthogonalEdgeStyle;rounded=0;orthogonalLoop=1;jettySize=auto;html=1;" parent="1" source="eF_WOxwGu_8auV4gQNJt-19" target="eF_WOxwGu_8auV4gQNJt-31" edge="1">
          <mxGeometry relative="1" as="geometry" />
        </mxCell>
        <mxCell id="xEmapFu_POOf8D5ossAb-78" style="edgeStyle=orthogonalEdgeStyle;rounded=0;orthogonalLoop=1;jettySize=auto;html=1;" parent="1" source="eF_WOxwGu_8auV4gQNJt-19" target="eF_WOxwGu_8auV4gQNJt-33" edge="1">
          <mxGeometry relative="1" as="geometry" />
        </mxCell>
        <mxCell id="xEmapFu_POOf8D5ossAb-79" style="edgeStyle=orthogonalEdgeStyle;rounded=0;orthogonalLoop=1;jettySize=auto;html=1;" parent="1" source="eF_WOxwGu_8auV4gQNJt-19" target="eF_WOxwGu_8auV4gQNJt-34" edge="1">
          <mxGeometry relative="1" as="geometry" />
        </mxCell>
        <mxCell id="xEmapFu_POOf8D5ossAb-80" style="edgeStyle=orthogonalEdgeStyle;rounded=0;orthogonalLoop=1;jettySize=auto;html=1;" parent="1" source="eF_WOxwGu_8auV4gQNJt-19" target="eF_WOxwGu_8auV4gQNJt-35" edge="1">
          <mxGeometry relative="1" as="geometry" />
        </mxCell>
        <mxCell id="xEmapFu_POOf8D5ossAb-81" style="edgeStyle=orthogonalEdgeStyle;rounded=0;orthogonalLoop=1;jettySize=auto;html=1;" parent="1" source="eF_WOxwGu_8auV4gQNJt-19" target="eF_WOxwGu_8auV4gQNJt-36" edge="1">
          <mxGeometry relative="1" as="geometry" />
        </mxCell>
        <mxCell id="xEmapFu_POOf8D5ossAb-82" style="edgeStyle=orthogonalEdgeStyle;rounded=0;orthogonalLoop=1;jettySize=auto;html=1;" parent="1" source="eF_WOxwGu_8auV4gQNJt-19" target="eF_WOxwGu_8auV4gQNJt-37" edge="1">
          <mxGeometry relative="1" as="geometry" />
        </mxCell>
        <mxCell id="xEmapFu_POOf8D5ossAb-83" style="edgeStyle=orthogonalEdgeStyle;rounded=0;orthogonalLoop=1;jettySize=auto;html=1;" parent="1" source="eF_WOxwGu_8auV4gQNJt-20" target="eF_WOxwGu_8auV4gQNJt-22" edge="1">
          <mxGeometry relative="1" as="geometry" />
        </mxCell>
        <mxCell id="xEmapFu_POOf8D5ossAb-84" style="edgeStyle=orthogonalEdgeStyle;rounded=0;orthogonalLoop=1;jettySize=auto;html=1;" parent="1" source="eF_WOxwGu_8auV4gQNJt-20" target="eF_WOxwGu_8auV4gQNJt-21" edge="1">
          <mxGeometry relative="1" as="geometry" />
        </mxCell>
        <mxCell id="xEmapFu_POOf8D5ossAb-85" style="edgeStyle=orthogonalEdgeStyle;rounded=0;orthogonalLoop=1;jettySize=auto;html=1;" parent="1" source="eF_WOxwGu_8auV4gQNJt-20" target="eF_WOxwGu_8auV4gQNJt-24" edge="1">
          <mxGeometry relative="1" as="geometry" />
        </mxCell>
        <mxCell id="xEmapFu_POOf8D5ossAb-86" style="edgeStyle=orthogonalEdgeStyle;rounded=0;orthogonalLoop=1;jettySize=auto;html=1;" parent="1" source="eF_WOxwGu_8auV4gQNJt-20" target="eF_WOxwGu_8auV4gQNJt-23" edge="1">
          <mxGeometry relative="1" as="geometry" />
        </mxCell>
        <mxCell id="xEmapFu_POOf8D5ossAb-87" style="edgeStyle=orthogonalEdgeStyle;rounded=0;orthogonalLoop=1;jettySize=auto;html=1;" parent="1" source="eF_WOxwGu_8auV4gQNJt-20" target="eF_WOxwGu_8auV4gQNJt-26" edge="1">
          <mxGeometry relative="1" as="geometry" />
        </mxCell>
        <mxCell id="xEmapFu_POOf8D5ossAb-88" style="edgeStyle=orthogonalEdgeStyle;rounded=0;orthogonalLoop=1;jettySize=auto;html=1;" parent="1" source="eF_WOxwGu_8auV4gQNJt-20" target="eF_WOxwGu_8auV4gQNJt-25" edge="1">
          <mxGeometry relative="1" as="geometry" />
        </mxCell>
        <mxCell id="xEmapFu_POOf8D5ossAb-89" style="edgeStyle=orthogonalEdgeStyle;rounded=0;orthogonalLoop=1;jettySize=auto;html=1;" parent="1" source="eF_WOxwGu_8auV4gQNJt-20" target="eF_WOxwGu_8auV4gQNJt-27" edge="1">
          <mxGeometry relative="1" as="geometry" />
        </mxCell>
        <mxCell id="xEmapFu_POOf8D5ossAb-90" style="edgeStyle=orthogonalEdgeStyle;rounded=0;orthogonalLoop=1;jettySize=auto;html=1;" parent="1" source="eF_WOxwGu_8auV4gQNJt-20" target="eF_WOxwGu_8auV4gQNJt-28" edge="1">
          <mxGeometry relative="1" as="geometry" />
        </mxCell>
        <mxCell id="xEmapFu_POOf8D5ossAb-91" style="edgeStyle=orthogonalEdgeStyle;rounded=0;orthogonalLoop=1;jettySize=auto;html=1;" parent="1" source="eF_WOxwGu_8auV4gQNJt-20" target="eF_WOxwGu_8auV4gQNJt-30" edge="1">
          <mxGeometry relative="1" as="geometry" />
        </mxCell>
        <mxCell id="xEmapFu_POOf8D5ossAb-92" style="edgeStyle=orthogonalEdgeStyle;rounded=0;orthogonalLoop=1;jettySize=auto;html=1;" parent="1" source="eF_WOxwGu_8auV4gQNJt-20" target="eF_WOxwGu_8auV4gQNJt-29" edge="1">
          <mxGeometry relative="1" as="geometry" />
        </mxCell>
        <mxCell id="xEmapFu_POOf8D5ossAb-93" style="edgeStyle=orthogonalEdgeStyle;rounded=0;orthogonalLoop=1;jettySize=auto;html=1;" parent="1" source="eF_WOxwGu_8auV4gQNJt-20" target="eF_WOxwGu_8auV4gQNJt-32" edge="1">
          <mxGeometry relative="1" as="geometry" />
        </mxCell>
        <mxCell id="xEmapFu_POOf8D5ossAb-94" style="edgeStyle=orthogonalEdgeStyle;rounded=0;orthogonalLoop=1;jettySize=auto;html=1;" parent="1" source="eF_WOxwGu_8auV4gQNJt-20" target="eF_WOxwGu_8auV4gQNJt-31" edge="1">
          <mxGeometry relative="1" as="geometry" />
        </mxCell>
        <mxCell id="xEmapFu_POOf8D5ossAb-95" style="edgeStyle=orthogonalEdgeStyle;rounded=0;orthogonalLoop=1;jettySize=auto;html=1;" parent="1" source="eF_WOxwGu_8auV4gQNJt-20" target="eF_WOxwGu_8auV4gQNJt-33" edge="1">
          <mxGeometry relative="1" as="geometry" />
        </mxCell>
        <mxCell id="xEmapFu_POOf8D5ossAb-96" style="edgeStyle=orthogonalEdgeStyle;rounded=0;orthogonalLoop=1;jettySize=auto;html=1;" parent="1" source="eF_WOxwGu_8auV4gQNJt-20" target="eF_WOxwGu_8auV4gQNJt-34" edge="1">
          <mxGeometry relative="1" as="geometry" />
        </mxCell>
        <mxCell id="xEmapFu_POOf8D5ossAb-97" style="edgeStyle=orthogonalEdgeStyle;rounded=0;orthogonalLoop=1;jettySize=auto;html=1;" parent="1" source="eF_WOxwGu_8auV4gQNJt-20" target="eF_WOxwGu_8auV4gQNJt-35" edge="1">
          <mxGeometry relative="1" as="geometry" />
        </mxCell>
        <mxCell id="xEmapFu_POOf8D5ossAb-98" style="edgeStyle=orthogonalEdgeStyle;rounded=0;orthogonalLoop=1;jettySize=auto;html=1;" parent="1" source="eF_WOxwGu_8auV4gQNJt-20" target="eF_WOxwGu_8auV4gQNJt-36" edge="1">
          <mxGeometry relative="1" as="geometry" />
        </mxCell>
        <mxCell id="xEmapFu_POOf8D5ossAb-99" style="edgeStyle=orthogonalEdgeStyle;rounded=0;orthogonalLoop=1;jettySize=auto;html=1;" parent="1" source="eF_WOxwGu_8auV4gQNJt-20" target="eF_WOxwGu_8auV4gQNJt-37" edge="1">
          <mxGeometry relative="1" as="geometry" />
        </mxCell>
        <mxCell id="eF_WOxwGu_8auV4gQNJt-20" value="Government" style="text;html=1;align=center;verticalAlign=middle;resizable=0;points=[];autosize=1;strokeColor=none;fillColor=none;fontSize=27;fontStyle=1;strokeWidth=9;" parent="1" vertex="1">
          <mxGeometry x="380" y="3000" width="170" height="50" as="geometry" />
        </mxCell>
        <mxCell id="xEmapFu_POOf8D5ossAb-119" style="edgeStyle=orthogonalEdgeStyle;rounded=0;orthogonalLoop=1;jettySize=auto;html=1;" parent="1" source="eF_WOxwGu_8auV4gQNJt-21" target="eF_WOxwGu_8auV4gQNJt-18" edge="1">
          <mxGeometry relative="1" as="geometry" />
        </mxCell>
        <mxCell id="xEmapFu_POOf8D5ossAb-120" style="edgeStyle=orthogonalEdgeStyle;rounded=0;orthogonalLoop=1;jettySize=auto;html=1;" parent="1" source="eF_WOxwGu_8auV4gQNJt-21" target="eF_WOxwGu_8auV4gQNJt-19" edge="1">
          <mxGeometry relative="1" as="geometry" />
        </mxCell>
        <mxCell id="xEmapFu_POOf8D5ossAb-121" style="edgeStyle=orthogonalEdgeStyle;rounded=0;orthogonalLoop=1;jettySize=auto;html=1;" parent="1" source="eF_WOxwGu_8auV4gQNJt-21" target="eF_WOxwGu_8auV4gQNJt-20" edge="1">
          <mxGeometry relative="1" as="geometry" />
        </mxCell>
        <mxCell id="xEmapFu_POOf8D5ossAb-122" style="edgeStyle=orthogonalEdgeStyle;rounded=0;orthogonalLoop=1;jettySize=auto;html=1;" parent="1" source="eF_WOxwGu_8auV4gQNJt-21" target="eF_WOxwGu_8auV4gQNJt-24" edge="1">
          <mxGeometry relative="1" as="geometry" />
        </mxCell>
        <mxCell id="xEmapFu_POOf8D5ossAb-123" style="edgeStyle=orthogonalEdgeStyle;rounded=0;orthogonalLoop=1;jettySize=auto;html=1;" parent="1" source="eF_WOxwGu_8auV4gQNJt-21" target="eF_WOxwGu_8auV4gQNJt-23" edge="1">
          <mxGeometry relative="1" as="geometry" />
        </mxCell>
        <mxCell id="xEmapFu_POOf8D5ossAb-124" style="edgeStyle=orthogonalEdgeStyle;rounded=0;orthogonalLoop=1;jettySize=auto;html=1;" parent="1" source="eF_WOxwGu_8auV4gQNJt-21" target="eF_WOxwGu_8auV4gQNJt-26" edge="1">
          <mxGeometry relative="1" as="geometry" />
        </mxCell>
        <mxCell id="xEmapFu_POOf8D5ossAb-125" style="edgeStyle=orthogonalEdgeStyle;rounded=0;orthogonalLoop=1;jettySize=auto;html=1;" parent="1" source="eF_WOxwGu_8auV4gQNJt-21" target="eF_WOxwGu_8auV4gQNJt-25" edge="1">
          <mxGeometry relative="1" as="geometry" />
        </mxCell>
        <mxCell id="xEmapFu_POOf8D5ossAb-126" style="edgeStyle=orthogonalEdgeStyle;rounded=0;orthogonalLoop=1;jettySize=auto;html=1;" parent="1" source="eF_WOxwGu_8auV4gQNJt-21" target="eF_WOxwGu_8auV4gQNJt-27" edge="1">
          <mxGeometry relative="1" as="geometry" />
        </mxCell>
        <mxCell id="xEmapFu_POOf8D5ossAb-127" style="edgeStyle=orthogonalEdgeStyle;rounded=0;orthogonalLoop=1;jettySize=auto;html=1;" parent="1" source="eF_WOxwGu_8auV4gQNJt-21" target="eF_WOxwGu_8auV4gQNJt-28" edge="1">
          <mxGeometry relative="1" as="geometry" />
        </mxCell>
        <mxCell id="xEmapFu_POOf8D5ossAb-128" style="edgeStyle=orthogonalEdgeStyle;rounded=0;orthogonalLoop=1;jettySize=auto;html=1;" parent="1" source="eF_WOxwGu_8auV4gQNJt-21" target="eF_WOxwGu_8auV4gQNJt-30" edge="1">
          <mxGeometry relative="1" as="geometry" />
        </mxCell>
        <mxCell id="xEmapFu_POOf8D5ossAb-129" style="edgeStyle=orthogonalEdgeStyle;rounded=0;orthogonalLoop=1;jettySize=auto;html=1;" parent="1" source="eF_WOxwGu_8auV4gQNJt-21" target="eF_WOxwGu_8auV4gQNJt-29" edge="1">
          <mxGeometry relative="1" as="geometry" />
        </mxCell>
        <mxCell id="xEmapFu_POOf8D5ossAb-130" style="edgeStyle=orthogonalEdgeStyle;rounded=0;orthogonalLoop=1;jettySize=auto;html=1;" parent="1" source="eF_WOxwGu_8auV4gQNJt-21" target="eF_WOxwGu_8auV4gQNJt-32" edge="1">
          <mxGeometry relative="1" as="geometry" />
        </mxCell>
        <mxCell id="xEmapFu_POOf8D5ossAb-131" style="edgeStyle=orthogonalEdgeStyle;rounded=0;orthogonalLoop=1;jettySize=auto;html=1;" parent="1" source="eF_WOxwGu_8auV4gQNJt-21" target="eF_WOxwGu_8auV4gQNJt-31" edge="1">
          <mxGeometry relative="1" as="geometry" />
        </mxCell>
        <mxCell id="xEmapFu_POOf8D5ossAb-132" style="edgeStyle=orthogonalEdgeStyle;rounded=0;orthogonalLoop=1;jettySize=auto;html=1;" parent="1" source="eF_WOxwGu_8auV4gQNJt-21" target="eF_WOxwGu_8auV4gQNJt-33" edge="1">
          <mxGeometry relative="1" as="geometry" />
        </mxCell>
        <mxCell id="xEmapFu_POOf8D5ossAb-133" style="edgeStyle=orthogonalEdgeStyle;rounded=0;orthogonalLoop=1;jettySize=auto;html=1;" parent="1" source="eF_WOxwGu_8auV4gQNJt-21" target="eF_WOxwGu_8auV4gQNJt-34" edge="1">
          <mxGeometry relative="1" as="geometry" />
        </mxCell>
        <mxCell id="xEmapFu_POOf8D5ossAb-134" style="edgeStyle=orthogonalEdgeStyle;rounded=0;orthogonalLoop=1;jettySize=auto;html=1;" parent="1" source="eF_WOxwGu_8auV4gQNJt-21" target="eF_WOxwGu_8auV4gQNJt-35" edge="1">
          <mxGeometry relative="1" as="geometry" />
        </mxCell>
        <mxCell id="xEmapFu_POOf8D5ossAb-135" style="edgeStyle=orthogonalEdgeStyle;rounded=0;orthogonalLoop=1;jettySize=auto;html=1;" parent="1" source="eF_WOxwGu_8auV4gQNJt-21" target="eF_WOxwGu_8auV4gQNJt-36" edge="1">
          <mxGeometry relative="1" as="geometry" />
        </mxCell>
        <mxCell id="xEmapFu_POOf8D5ossAb-136" style="edgeStyle=orthogonalEdgeStyle;rounded=0;orthogonalLoop=1;jettySize=auto;html=1;" parent="1" source="eF_WOxwGu_8auV4gQNJt-21" target="eF_WOxwGu_8auV4gQNJt-37" edge="1">
          <mxGeometry relative="1" as="geometry" />
        </mxCell>
        <mxCell id="eF_WOxwGu_8auV4gQNJt-21" value="Number of Violations" style="text;html=1;align=center;verticalAlign=middle;resizable=0;points=[];autosize=1;strokeColor=none;fillColor=none;fontSize=27;fontStyle=1;strokeWidth=9;" parent="1" vertex="1">
          <mxGeometry x="900" y="3190" width="270" height="50" as="geometry" />
        </mxCell>
        <mxCell id="xEmapFu_POOf8D5ossAb-100" style="edgeStyle=orthogonalEdgeStyle;rounded=0;orthogonalLoop=1;jettySize=auto;html=1;" parent="1" source="eF_WOxwGu_8auV4gQNJt-22" target="eF_WOxwGu_8auV4gQNJt-18" edge="1">
          <mxGeometry relative="1" as="geometry" />
        </mxCell>
        <mxCell id="xEmapFu_POOf8D5ossAb-101" style="edgeStyle=orthogonalEdgeStyle;rounded=0;orthogonalLoop=1;jettySize=auto;html=1;" parent="1" source="eF_WOxwGu_8auV4gQNJt-22" target="eF_WOxwGu_8auV4gQNJt-19" edge="1">
          <mxGeometry relative="1" as="geometry" />
        </mxCell>
        <mxCell id="xEmapFu_POOf8D5ossAb-102" style="edgeStyle=orthogonalEdgeStyle;rounded=0;orthogonalLoop=1;jettySize=auto;html=1;" parent="1" source="eF_WOxwGu_8auV4gQNJt-22" target="eF_WOxwGu_8auV4gQNJt-20" edge="1">
          <mxGeometry relative="1" as="geometry" />
        </mxCell>
        <mxCell id="xEmapFu_POOf8D5ossAb-104" style="edgeStyle=orthogonalEdgeStyle;rounded=0;orthogonalLoop=1;jettySize=auto;html=1;" parent="1" source="eF_WOxwGu_8auV4gQNJt-22" target="eF_WOxwGu_8auV4gQNJt-24" edge="1">
          <mxGeometry relative="1" as="geometry" />
        </mxCell>
        <mxCell id="xEmapFu_POOf8D5ossAb-105" style="edgeStyle=orthogonalEdgeStyle;rounded=0;orthogonalLoop=1;jettySize=auto;html=1;" parent="1" source="eF_WOxwGu_8auV4gQNJt-22" target="eF_WOxwGu_8auV4gQNJt-23" edge="1">
          <mxGeometry relative="1" as="geometry" />
        </mxCell>
        <mxCell id="xEmapFu_POOf8D5ossAb-106" style="edgeStyle=orthogonalEdgeStyle;rounded=0;orthogonalLoop=1;jettySize=auto;html=1;" parent="1" source="eF_WOxwGu_8auV4gQNJt-22" target="eF_WOxwGu_8auV4gQNJt-26" edge="1">
          <mxGeometry relative="1" as="geometry" />
        </mxCell>
        <mxCell id="xEmapFu_POOf8D5ossAb-107" style="edgeStyle=orthogonalEdgeStyle;rounded=0;orthogonalLoop=1;jettySize=auto;html=1;" parent="1" source="eF_WOxwGu_8auV4gQNJt-22" target="eF_WOxwGu_8auV4gQNJt-25" edge="1">
          <mxGeometry relative="1" as="geometry" />
        </mxCell>
        <mxCell id="xEmapFu_POOf8D5ossAb-108" style="edgeStyle=orthogonalEdgeStyle;rounded=0;orthogonalLoop=1;jettySize=auto;html=1;" parent="1" source="eF_WOxwGu_8auV4gQNJt-22" target="eF_WOxwGu_8auV4gQNJt-27" edge="1">
          <mxGeometry relative="1" as="geometry" />
        </mxCell>
        <mxCell id="xEmapFu_POOf8D5ossAb-109" style="edgeStyle=orthogonalEdgeStyle;rounded=0;orthogonalLoop=1;jettySize=auto;html=1;" parent="1" source="eF_WOxwGu_8auV4gQNJt-22" target="eF_WOxwGu_8auV4gQNJt-28" edge="1">
          <mxGeometry relative="1" as="geometry" />
        </mxCell>
        <mxCell id="xEmapFu_POOf8D5ossAb-110" style="edgeStyle=orthogonalEdgeStyle;rounded=0;orthogonalLoop=1;jettySize=auto;html=1;" parent="1" source="eF_WOxwGu_8auV4gQNJt-22" target="eF_WOxwGu_8auV4gQNJt-30" edge="1">
          <mxGeometry relative="1" as="geometry" />
        </mxCell>
        <mxCell id="xEmapFu_POOf8D5ossAb-111" style="edgeStyle=orthogonalEdgeStyle;rounded=0;orthogonalLoop=1;jettySize=auto;html=1;" parent="1" source="eF_WOxwGu_8auV4gQNJt-22" target="eF_WOxwGu_8auV4gQNJt-29" edge="1">
          <mxGeometry relative="1" as="geometry" />
        </mxCell>
        <mxCell id="xEmapFu_POOf8D5ossAb-112" style="edgeStyle=orthogonalEdgeStyle;rounded=0;orthogonalLoop=1;jettySize=auto;html=1;" parent="1" source="eF_WOxwGu_8auV4gQNJt-22" target="eF_WOxwGu_8auV4gQNJt-32" edge="1">
          <mxGeometry relative="1" as="geometry" />
        </mxCell>
        <mxCell id="xEmapFu_POOf8D5ossAb-113" style="edgeStyle=orthogonalEdgeStyle;rounded=0;orthogonalLoop=1;jettySize=auto;html=1;" parent="1" source="eF_WOxwGu_8auV4gQNJt-22" target="eF_WOxwGu_8auV4gQNJt-31" edge="1">
          <mxGeometry relative="1" as="geometry" />
        </mxCell>
        <mxCell id="xEmapFu_POOf8D5ossAb-114" style="edgeStyle=orthogonalEdgeStyle;rounded=0;orthogonalLoop=1;jettySize=auto;html=1;" parent="1" source="eF_WOxwGu_8auV4gQNJt-22" target="eF_WOxwGu_8auV4gQNJt-33" edge="1">
          <mxGeometry relative="1" as="geometry" />
        </mxCell>
        <mxCell id="xEmapFu_POOf8D5ossAb-115" style="edgeStyle=orthogonalEdgeStyle;rounded=0;orthogonalLoop=1;jettySize=auto;html=1;" parent="1" source="eF_WOxwGu_8auV4gQNJt-22" target="eF_WOxwGu_8auV4gQNJt-34" edge="1">
          <mxGeometry relative="1" as="geometry" />
        </mxCell>
        <mxCell id="xEmapFu_POOf8D5ossAb-116" style="edgeStyle=orthogonalEdgeStyle;rounded=0;orthogonalLoop=1;jettySize=auto;html=1;" parent="1" source="eF_WOxwGu_8auV4gQNJt-22" target="eF_WOxwGu_8auV4gQNJt-35" edge="1">
          <mxGeometry relative="1" as="geometry" />
        </mxCell>
        <mxCell id="xEmapFu_POOf8D5ossAb-117" style="edgeStyle=orthogonalEdgeStyle;rounded=0;orthogonalLoop=1;jettySize=auto;html=1;" parent="1" source="eF_WOxwGu_8auV4gQNJt-22" target="eF_WOxwGu_8auV4gQNJt-36" edge="1">
          <mxGeometry relative="1" as="geometry" />
        </mxCell>
        <mxCell id="xEmapFu_POOf8D5ossAb-118" style="edgeStyle=orthogonalEdgeStyle;rounded=0;orthogonalLoop=1;jettySize=auto;html=1;" parent="1" source="eF_WOxwGu_8auV4gQNJt-22" target="eF_WOxwGu_8auV4gQNJt-37" edge="1">
          <mxGeometry relative="1" as="geometry" />
        </mxCell>
        <mxCell id="eF_WOxwGu_8auV4gQNJt-22" value="Criticality of Violations" style="text;html=1;align=center;verticalAlign=middle;resizable=0;points=[];autosize=1;strokeColor=none;fillColor=none;fontSize=27;fontStyle=1;strokeWidth=9;" parent="1" vertex="1">
          <mxGeometry x="570.0000000000002" y="3090" width="290" height="50" as="geometry" />
        </mxCell>
        <mxCell id="xEmapFu_POOf8D5ossAb-155" style="edgeStyle=orthogonalEdgeStyle;rounded=0;orthogonalLoop=1;jettySize=auto;html=1;" parent="1" source="eF_WOxwGu_8auV4gQNJt-23" target="eF_WOxwGu_8auV4gQNJt-18" edge="1">
          <mxGeometry relative="1" as="geometry" />
        </mxCell>
        <mxCell id="xEmapFu_POOf8D5ossAb-156" style="edgeStyle=orthogonalEdgeStyle;rounded=0;orthogonalLoop=1;jettySize=auto;html=1;" parent="1" source="eF_WOxwGu_8auV4gQNJt-23" target="eF_WOxwGu_8auV4gQNJt-19" edge="1">
          <mxGeometry relative="1" as="geometry" />
        </mxCell>
        <mxCell id="xEmapFu_POOf8D5ossAb-157" style="edgeStyle=orthogonalEdgeStyle;rounded=0;orthogonalLoop=1;jettySize=auto;html=1;" parent="1" source="eF_WOxwGu_8auV4gQNJt-23" target="eF_WOxwGu_8auV4gQNJt-20" edge="1">
          <mxGeometry relative="1" as="geometry" />
        </mxCell>
        <mxCell id="xEmapFu_POOf8D5ossAb-158" style="edgeStyle=orthogonalEdgeStyle;rounded=0;orthogonalLoop=1;jettySize=auto;html=1;" parent="1" source="eF_WOxwGu_8auV4gQNJt-23" target="eF_WOxwGu_8auV4gQNJt-22" edge="1">
          <mxGeometry relative="1" as="geometry" />
        </mxCell>
        <mxCell id="xEmapFu_POOf8D5ossAb-159" style="edgeStyle=orthogonalEdgeStyle;rounded=0;orthogonalLoop=1;jettySize=auto;html=1;" parent="1" source="eF_WOxwGu_8auV4gQNJt-23" target="eF_WOxwGu_8auV4gQNJt-21" edge="1">
          <mxGeometry relative="1" as="geometry" />
        </mxCell>
        <mxCell id="xEmapFu_POOf8D5ossAb-161" style="edgeStyle=orthogonalEdgeStyle;rounded=0;orthogonalLoop=1;jettySize=auto;html=1;" parent="1" source="eF_WOxwGu_8auV4gQNJt-23" target="eF_WOxwGu_8auV4gQNJt-26" edge="1">
          <mxGeometry relative="1" as="geometry" />
        </mxCell>
        <mxCell id="xEmapFu_POOf8D5ossAb-162" style="edgeStyle=orthogonalEdgeStyle;rounded=0;orthogonalLoop=1;jettySize=auto;html=1;" parent="1" source="eF_WOxwGu_8auV4gQNJt-23" target="eF_WOxwGu_8auV4gQNJt-25" edge="1">
          <mxGeometry relative="1" as="geometry" />
        </mxCell>
        <mxCell id="xEmapFu_POOf8D5ossAb-163" style="edgeStyle=orthogonalEdgeStyle;rounded=0;orthogonalLoop=1;jettySize=auto;html=1;" parent="1" source="eF_WOxwGu_8auV4gQNJt-23" target="eF_WOxwGu_8auV4gQNJt-27" edge="1">
          <mxGeometry relative="1" as="geometry" />
        </mxCell>
        <mxCell id="xEmapFu_POOf8D5ossAb-164" style="edgeStyle=orthogonalEdgeStyle;rounded=0;orthogonalLoop=1;jettySize=auto;html=1;" parent="1" source="eF_WOxwGu_8auV4gQNJt-23" target="eF_WOxwGu_8auV4gQNJt-28" edge="1">
          <mxGeometry relative="1" as="geometry" />
        </mxCell>
        <mxCell id="xEmapFu_POOf8D5ossAb-165" style="edgeStyle=orthogonalEdgeStyle;rounded=0;orthogonalLoop=1;jettySize=auto;html=1;" parent="1" source="eF_WOxwGu_8auV4gQNJt-23" target="eF_WOxwGu_8auV4gQNJt-30" edge="1">
          <mxGeometry relative="1" as="geometry" />
        </mxCell>
        <mxCell id="xEmapFu_POOf8D5ossAb-166" style="edgeStyle=orthogonalEdgeStyle;rounded=0;orthogonalLoop=1;jettySize=auto;html=1;" parent="1" source="eF_WOxwGu_8auV4gQNJt-23" target="eF_WOxwGu_8auV4gQNJt-29" edge="1">
          <mxGeometry relative="1" as="geometry" />
        </mxCell>
        <mxCell id="xEmapFu_POOf8D5ossAb-167" style="edgeStyle=orthogonalEdgeStyle;rounded=0;orthogonalLoop=1;jettySize=auto;html=1;" parent="1" source="eF_WOxwGu_8auV4gQNJt-23" target="eF_WOxwGu_8auV4gQNJt-32" edge="1">
          <mxGeometry relative="1" as="geometry" />
        </mxCell>
        <mxCell id="xEmapFu_POOf8D5ossAb-168" style="edgeStyle=orthogonalEdgeStyle;rounded=0;orthogonalLoop=1;jettySize=auto;html=1;" parent="1" source="eF_WOxwGu_8auV4gQNJt-23" target="eF_WOxwGu_8auV4gQNJt-31" edge="1">
          <mxGeometry relative="1" as="geometry" />
        </mxCell>
        <mxCell id="xEmapFu_POOf8D5ossAb-169" style="edgeStyle=orthogonalEdgeStyle;rounded=0;orthogonalLoop=1;jettySize=auto;html=1;" parent="1" source="eF_WOxwGu_8auV4gQNJt-23" target="eF_WOxwGu_8auV4gQNJt-33" edge="1">
          <mxGeometry relative="1" as="geometry" />
        </mxCell>
        <mxCell id="xEmapFu_POOf8D5ossAb-170" style="edgeStyle=orthogonalEdgeStyle;rounded=0;orthogonalLoop=1;jettySize=auto;html=1;" parent="1" source="eF_WOxwGu_8auV4gQNJt-23" target="eF_WOxwGu_8auV4gQNJt-34" edge="1">
          <mxGeometry relative="1" as="geometry" />
        </mxCell>
        <mxCell id="xEmapFu_POOf8D5ossAb-171" style="edgeStyle=orthogonalEdgeStyle;rounded=0;orthogonalLoop=1;jettySize=auto;html=1;" parent="1" source="eF_WOxwGu_8auV4gQNJt-23" target="eF_WOxwGu_8auV4gQNJt-35" edge="1">
          <mxGeometry relative="1" as="geometry" />
        </mxCell>
        <mxCell id="xEmapFu_POOf8D5ossAb-172" style="edgeStyle=orthogonalEdgeStyle;rounded=0;orthogonalLoop=1;jettySize=auto;html=1;" parent="1" source="eF_WOxwGu_8auV4gQNJt-23" target="eF_WOxwGu_8auV4gQNJt-36" edge="1">
          <mxGeometry relative="1" as="geometry" />
        </mxCell>
        <mxCell id="xEmapFu_POOf8D5ossAb-173" style="edgeStyle=orthogonalEdgeStyle;rounded=0;orthogonalLoop=1;jettySize=auto;html=1;" parent="1" source="eF_WOxwGu_8auV4gQNJt-23" target="eF_WOxwGu_8auV4gQNJt-37" edge="1">
          <mxGeometry relative="1" as="geometry" />
        </mxCell>
        <mxCell id="eF_WOxwGu_8auV4gQNJt-23" value="Not Authenticated" style="text;html=1;align=center;verticalAlign=middle;resizable=0;points=[];autosize=1;strokeColor=none;fillColor=none;fontSize=27;fontStyle=1;strokeWidth=9;" parent="1" vertex="1">
          <mxGeometry x="1480.0000000000007" y="3340" width="240" height="50" as="geometry" />
        </mxCell>
        <mxCell id="xEmapFu_POOf8D5ossAb-137" style="edgeStyle=orthogonalEdgeStyle;rounded=0;orthogonalLoop=1;jettySize=auto;html=1;" parent="1" source="eF_WOxwGu_8auV4gQNJt-24" target="eF_WOxwGu_8auV4gQNJt-18" edge="1">
          <mxGeometry relative="1" as="geometry" />
        </mxCell>
        <mxCell id="xEmapFu_POOf8D5ossAb-138" style="edgeStyle=orthogonalEdgeStyle;rounded=0;orthogonalLoop=1;jettySize=auto;html=1;" parent="1" source="eF_WOxwGu_8auV4gQNJt-24" target="eF_WOxwGu_8auV4gQNJt-19" edge="1">
          <mxGeometry relative="1" as="geometry" />
        </mxCell>
        <mxCell id="xEmapFu_POOf8D5ossAb-139" style="edgeStyle=orthogonalEdgeStyle;rounded=0;orthogonalLoop=1;jettySize=auto;html=1;" parent="1" source="eF_WOxwGu_8auV4gQNJt-24" target="eF_WOxwGu_8auV4gQNJt-20" edge="1">
          <mxGeometry relative="1" as="geometry" />
        </mxCell>
        <mxCell id="xEmapFu_POOf8D5ossAb-140" style="edgeStyle=orthogonalEdgeStyle;rounded=0;orthogonalLoop=1;jettySize=auto;html=1;" parent="1" source="eF_WOxwGu_8auV4gQNJt-24" target="eF_WOxwGu_8auV4gQNJt-22" edge="1">
          <mxGeometry relative="1" as="geometry" />
        </mxCell>
        <mxCell id="xEmapFu_POOf8D5ossAb-141" style="edgeStyle=orthogonalEdgeStyle;rounded=0;orthogonalLoop=1;jettySize=auto;html=1;" parent="1" source="eF_WOxwGu_8auV4gQNJt-24" target="eF_WOxwGu_8auV4gQNJt-21" edge="1">
          <mxGeometry relative="1" as="geometry" />
        </mxCell>
        <mxCell id="xEmapFu_POOf8D5ossAb-142" style="edgeStyle=orthogonalEdgeStyle;rounded=0;orthogonalLoop=1;jettySize=auto;html=1;" parent="1" source="eF_WOxwGu_8auV4gQNJt-24" target="eF_WOxwGu_8auV4gQNJt-26" edge="1">
          <mxGeometry relative="1" as="geometry" />
        </mxCell>
        <mxCell id="xEmapFu_POOf8D5ossAb-143" style="edgeStyle=orthogonalEdgeStyle;rounded=0;orthogonalLoop=1;jettySize=auto;html=1;" parent="1" source="eF_WOxwGu_8auV4gQNJt-24" target="eF_WOxwGu_8auV4gQNJt-25" edge="1">
          <mxGeometry relative="1" as="geometry" />
        </mxCell>
        <mxCell id="xEmapFu_POOf8D5ossAb-144" style="edgeStyle=orthogonalEdgeStyle;rounded=0;orthogonalLoop=1;jettySize=auto;html=1;" parent="1" source="eF_WOxwGu_8auV4gQNJt-24" target="eF_WOxwGu_8auV4gQNJt-27" edge="1">
          <mxGeometry relative="1" as="geometry" />
        </mxCell>
        <mxCell id="xEmapFu_POOf8D5ossAb-145" style="edgeStyle=orthogonalEdgeStyle;rounded=0;orthogonalLoop=1;jettySize=auto;html=1;" parent="1" source="eF_WOxwGu_8auV4gQNJt-24" target="eF_WOxwGu_8auV4gQNJt-28" edge="1">
          <mxGeometry relative="1" as="geometry" />
        </mxCell>
        <mxCell id="xEmapFu_POOf8D5ossAb-146" style="edgeStyle=orthogonalEdgeStyle;rounded=0;orthogonalLoop=1;jettySize=auto;html=1;" parent="1" source="eF_WOxwGu_8auV4gQNJt-24" target="eF_WOxwGu_8auV4gQNJt-30" edge="1">
          <mxGeometry relative="1" as="geometry" />
        </mxCell>
        <mxCell id="xEmapFu_POOf8D5ossAb-147" style="edgeStyle=orthogonalEdgeStyle;rounded=0;orthogonalLoop=1;jettySize=auto;html=1;" parent="1" source="eF_WOxwGu_8auV4gQNJt-24" target="eF_WOxwGu_8auV4gQNJt-29" edge="1">
          <mxGeometry relative="1" as="geometry" />
        </mxCell>
        <mxCell id="xEmapFu_POOf8D5ossAb-148" style="edgeStyle=orthogonalEdgeStyle;rounded=0;orthogonalLoop=1;jettySize=auto;html=1;" parent="1" source="eF_WOxwGu_8auV4gQNJt-24" target="eF_WOxwGu_8auV4gQNJt-32" edge="1">
          <mxGeometry relative="1" as="geometry" />
        </mxCell>
        <mxCell id="xEmapFu_POOf8D5ossAb-149" style="edgeStyle=orthogonalEdgeStyle;rounded=0;orthogonalLoop=1;jettySize=auto;html=1;" parent="1" source="eF_WOxwGu_8auV4gQNJt-24" target="eF_WOxwGu_8auV4gQNJt-31" edge="1">
          <mxGeometry relative="1" as="geometry" />
        </mxCell>
        <mxCell id="xEmapFu_POOf8D5ossAb-150" style="edgeStyle=orthogonalEdgeStyle;rounded=0;orthogonalLoop=1;jettySize=auto;html=1;" parent="1" source="eF_WOxwGu_8auV4gQNJt-24" target="eF_WOxwGu_8auV4gQNJt-33" edge="1">
          <mxGeometry relative="1" as="geometry" />
        </mxCell>
        <mxCell id="xEmapFu_POOf8D5ossAb-151" style="edgeStyle=orthogonalEdgeStyle;rounded=0;orthogonalLoop=1;jettySize=auto;html=1;" parent="1" source="eF_WOxwGu_8auV4gQNJt-24" target="eF_WOxwGu_8auV4gQNJt-34" edge="1">
          <mxGeometry relative="1" as="geometry" />
        </mxCell>
        <mxCell id="xEmapFu_POOf8D5ossAb-152" style="edgeStyle=orthogonalEdgeStyle;rounded=0;orthogonalLoop=1;jettySize=auto;html=1;" parent="1" source="eF_WOxwGu_8auV4gQNJt-24" target="eF_WOxwGu_8auV4gQNJt-35" edge="1">
          <mxGeometry relative="1" as="geometry" />
        </mxCell>
        <mxCell id="xEmapFu_POOf8D5ossAb-153" style="edgeStyle=orthogonalEdgeStyle;rounded=0;orthogonalLoop=1;jettySize=auto;html=1;" parent="1" source="eF_WOxwGu_8auV4gQNJt-24" target="eF_WOxwGu_8auV4gQNJt-36" edge="1">
          <mxGeometry relative="1" as="geometry" />
        </mxCell>
        <mxCell id="xEmapFu_POOf8D5ossAb-154" style="edgeStyle=orthogonalEdgeStyle;rounded=0;orthogonalLoop=1;jettySize=auto;html=1;" parent="1" source="eF_WOxwGu_8auV4gQNJt-24" target="eF_WOxwGu_8auV4gQNJt-37" edge="1">
          <mxGeometry relative="1" as="geometry" />
        </mxCell>
        <mxCell id="eF_WOxwGu_8auV4gQNJt-24" value="Authenticated" style="text;html=1;align=center;verticalAlign=middle;resizable=0;points=[];autosize=1;strokeColor=none;fillColor=none;fontSize=27;fontStyle=1;strokeWidth=9;" parent="1" vertex="1">
          <mxGeometry x="1240.0000000000007" y="3240" width="190" height="50" as="geometry" />
        </mxCell>
        <mxCell id="xEmapFu_POOf8D5ossAb-193" style="edgeStyle=orthogonalEdgeStyle;rounded=0;orthogonalLoop=1;jettySize=auto;html=1;" parent="1" source="eF_WOxwGu_8auV4gQNJt-25" target="eF_WOxwGu_8auV4gQNJt-18" edge="1">
          <mxGeometry relative="1" as="geometry" />
        </mxCell>
        <mxCell id="xEmapFu_POOf8D5ossAb-194" style="edgeStyle=orthogonalEdgeStyle;rounded=0;orthogonalLoop=1;jettySize=auto;html=1;" parent="1" source="eF_WOxwGu_8auV4gQNJt-25" target="eF_WOxwGu_8auV4gQNJt-19" edge="1">
          <mxGeometry relative="1" as="geometry" />
        </mxCell>
        <mxCell id="xEmapFu_POOf8D5ossAb-195" style="edgeStyle=orthogonalEdgeStyle;rounded=0;orthogonalLoop=1;jettySize=auto;html=1;" parent="1" source="eF_WOxwGu_8auV4gQNJt-25" target="eF_WOxwGu_8auV4gQNJt-20" edge="1">
          <mxGeometry relative="1" as="geometry" />
        </mxCell>
        <mxCell id="xEmapFu_POOf8D5ossAb-196" style="edgeStyle=orthogonalEdgeStyle;rounded=0;orthogonalLoop=1;jettySize=auto;html=1;" parent="1" source="eF_WOxwGu_8auV4gQNJt-25" target="eF_WOxwGu_8auV4gQNJt-22" edge="1">
          <mxGeometry relative="1" as="geometry" />
        </mxCell>
        <mxCell id="xEmapFu_POOf8D5ossAb-197" style="edgeStyle=orthogonalEdgeStyle;rounded=0;orthogonalLoop=1;jettySize=auto;html=1;" parent="1" source="eF_WOxwGu_8auV4gQNJt-25" target="eF_WOxwGu_8auV4gQNJt-21" edge="1">
          <mxGeometry relative="1" as="geometry" />
        </mxCell>
        <mxCell id="xEmapFu_POOf8D5ossAb-198" style="edgeStyle=orthogonalEdgeStyle;rounded=0;orthogonalLoop=1;jettySize=auto;html=1;" parent="1" source="eF_WOxwGu_8auV4gQNJt-25" target="eF_WOxwGu_8auV4gQNJt-24" edge="1">
          <mxGeometry relative="1" as="geometry" />
        </mxCell>
        <mxCell id="xEmapFu_POOf8D5ossAb-199" style="edgeStyle=orthogonalEdgeStyle;rounded=0;orthogonalLoop=1;jettySize=auto;html=1;" parent="1" source="eF_WOxwGu_8auV4gQNJt-25" target="eF_WOxwGu_8auV4gQNJt-23" edge="1">
          <mxGeometry relative="1" as="geometry" />
        </mxCell>
        <mxCell id="xEmapFu_POOf8D5ossAb-200" style="edgeStyle=orthogonalEdgeStyle;rounded=0;orthogonalLoop=1;jettySize=auto;html=1;" parent="1" source="eF_WOxwGu_8auV4gQNJt-25" target="eF_WOxwGu_8auV4gQNJt-27" edge="1">
          <mxGeometry relative="1" as="geometry" />
        </mxCell>
        <mxCell id="xEmapFu_POOf8D5ossAb-201" style="edgeStyle=orthogonalEdgeStyle;rounded=0;orthogonalLoop=1;jettySize=auto;html=1;" parent="1" source="eF_WOxwGu_8auV4gQNJt-25" target="eF_WOxwGu_8auV4gQNJt-28" edge="1">
          <mxGeometry relative="1" as="geometry" />
        </mxCell>
        <mxCell id="xEmapFu_POOf8D5ossAb-202" style="edgeStyle=orthogonalEdgeStyle;rounded=0;orthogonalLoop=1;jettySize=auto;html=1;" parent="1" source="eF_WOxwGu_8auV4gQNJt-25" target="eF_WOxwGu_8auV4gQNJt-30" edge="1">
          <mxGeometry relative="1" as="geometry" />
        </mxCell>
        <mxCell id="xEmapFu_POOf8D5ossAb-203" style="edgeStyle=orthogonalEdgeStyle;rounded=0;orthogonalLoop=1;jettySize=auto;html=1;" parent="1" source="eF_WOxwGu_8auV4gQNJt-25" target="eF_WOxwGu_8auV4gQNJt-29" edge="1">
          <mxGeometry relative="1" as="geometry" />
        </mxCell>
        <mxCell id="xEmapFu_POOf8D5ossAb-204" style="edgeStyle=orthogonalEdgeStyle;rounded=0;orthogonalLoop=1;jettySize=auto;html=1;" parent="1" source="eF_WOxwGu_8auV4gQNJt-25" target="eF_WOxwGu_8auV4gQNJt-32" edge="1">
          <mxGeometry relative="1" as="geometry" />
        </mxCell>
        <mxCell id="xEmapFu_POOf8D5ossAb-205" style="edgeStyle=orthogonalEdgeStyle;rounded=0;orthogonalLoop=1;jettySize=auto;html=1;" parent="1" source="eF_WOxwGu_8auV4gQNJt-25" target="eF_WOxwGu_8auV4gQNJt-31" edge="1">
          <mxGeometry relative="1" as="geometry" />
        </mxCell>
        <mxCell id="xEmapFu_POOf8D5ossAb-206" style="edgeStyle=orthogonalEdgeStyle;rounded=0;orthogonalLoop=1;jettySize=auto;html=1;" parent="1" source="eF_WOxwGu_8auV4gQNJt-25" target="eF_WOxwGu_8auV4gQNJt-33" edge="1">
          <mxGeometry relative="1" as="geometry" />
        </mxCell>
        <mxCell id="xEmapFu_POOf8D5ossAb-207" style="edgeStyle=orthogonalEdgeStyle;rounded=0;orthogonalLoop=1;jettySize=auto;html=1;" parent="1" source="eF_WOxwGu_8auV4gQNJt-25" target="eF_WOxwGu_8auV4gQNJt-34" edge="1">
          <mxGeometry relative="1" as="geometry" />
        </mxCell>
        <mxCell id="xEmapFu_POOf8D5ossAb-208" style="edgeStyle=orthogonalEdgeStyle;rounded=0;orthogonalLoop=1;jettySize=auto;html=1;" parent="1" source="eF_WOxwGu_8auV4gQNJt-25" target="eF_WOxwGu_8auV4gQNJt-35" edge="1">
          <mxGeometry relative="1" as="geometry" />
        </mxCell>
        <mxCell id="xEmapFu_POOf8D5ossAb-209" style="edgeStyle=orthogonalEdgeStyle;rounded=0;orthogonalLoop=1;jettySize=auto;html=1;" parent="1" source="eF_WOxwGu_8auV4gQNJt-25" target="eF_WOxwGu_8auV4gQNJt-36" edge="1">
          <mxGeometry relative="1" as="geometry" />
        </mxCell>
        <mxCell id="xEmapFu_POOf8D5ossAb-210" style="edgeStyle=orthogonalEdgeStyle;rounded=0;orthogonalLoop=1;jettySize=auto;html=1;" parent="1" source="eF_WOxwGu_8auV4gQNJt-25" target="eF_WOxwGu_8auV4gQNJt-37" edge="1">
          <mxGeometry relative="1" as="geometry" />
        </mxCell>
        <mxCell id="eF_WOxwGu_8auV4gQNJt-25" value="Not Visible" style="text;html=1;align=center;verticalAlign=middle;resizable=0;points=[];autosize=1;strokeColor=none;fillColor=none;fontSize=27;fontStyle=1;strokeWidth=9;" parent="1" vertex="1">
          <mxGeometry x="1933.2200000000007" y="3530" width="150" height="50" as="geometry" />
        </mxCell>
        <mxCell id="xEmapFu_POOf8D5ossAb-174" style="edgeStyle=orthogonalEdgeStyle;rounded=0;orthogonalLoop=1;jettySize=auto;html=1;" parent="1" source="eF_WOxwGu_8auV4gQNJt-26" target="eF_WOxwGu_8auV4gQNJt-18" edge="1">
          <mxGeometry relative="1" as="geometry" />
        </mxCell>
        <mxCell id="xEmapFu_POOf8D5ossAb-175" style="edgeStyle=orthogonalEdgeStyle;rounded=0;orthogonalLoop=1;jettySize=auto;html=1;" parent="1" source="eF_WOxwGu_8auV4gQNJt-26" target="eF_WOxwGu_8auV4gQNJt-19" edge="1">
          <mxGeometry relative="1" as="geometry" />
        </mxCell>
        <mxCell id="xEmapFu_POOf8D5ossAb-176" style="edgeStyle=orthogonalEdgeStyle;rounded=0;orthogonalLoop=1;jettySize=auto;html=1;" parent="1" source="eF_WOxwGu_8auV4gQNJt-26" target="eF_WOxwGu_8auV4gQNJt-20" edge="1">
          <mxGeometry relative="1" as="geometry" />
        </mxCell>
        <mxCell id="xEmapFu_POOf8D5ossAb-177" style="edgeStyle=orthogonalEdgeStyle;rounded=0;orthogonalLoop=1;jettySize=auto;html=1;" parent="1" source="eF_WOxwGu_8auV4gQNJt-26" target="eF_WOxwGu_8auV4gQNJt-22" edge="1">
          <mxGeometry relative="1" as="geometry" />
        </mxCell>
        <mxCell id="xEmapFu_POOf8D5ossAb-178" style="edgeStyle=orthogonalEdgeStyle;rounded=0;orthogonalLoop=1;jettySize=auto;html=1;" parent="1" source="eF_WOxwGu_8auV4gQNJt-26" target="eF_WOxwGu_8auV4gQNJt-21" edge="1">
          <mxGeometry relative="1" as="geometry" />
        </mxCell>
        <mxCell id="xEmapFu_POOf8D5ossAb-179" style="edgeStyle=orthogonalEdgeStyle;rounded=0;orthogonalLoop=1;jettySize=auto;html=1;" parent="1" source="eF_WOxwGu_8auV4gQNJt-26" target="eF_WOxwGu_8auV4gQNJt-24" edge="1">
          <mxGeometry relative="1" as="geometry" />
        </mxCell>
        <mxCell id="xEmapFu_POOf8D5ossAb-180" style="edgeStyle=orthogonalEdgeStyle;rounded=0;orthogonalLoop=1;jettySize=auto;html=1;" parent="1" source="eF_WOxwGu_8auV4gQNJt-26" target="eF_WOxwGu_8auV4gQNJt-23" edge="1">
          <mxGeometry relative="1" as="geometry" />
        </mxCell>
        <mxCell id="xEmapFu_POOf8D5ossAb-182" style="edgeStyle=orthogonalEdgeStyle;rounded=0;orthogonalLoop=1;jettySize=auto;html=1;" parent="1" source="eF_WOxwGu_8auV4gQNJt-26" target="eF_WOxwGu_8auV4gQNJt-27" edge="1">
          <mxGeometry relative="1" as="geometry" />
        </mxCell>
        <mxCell id="xEmapFu_POOf8D5ossAb-183" style="edgeStyle=orthogonalEdgeStyle;rounded=0;orthogonalLoop=1;jettySize=auto;html=1;" parent="1" source="eF_WOxwGu_8auV4gQNJt-26" target="eF_WOxwGu_8auV4gQNJt-28" edge="1">
          <mxGeometry relative="1" as="geometry" />
        </mxCell>
        <mxCell id="xEmapFu_POOf8D5ossAb-184" style="edgeStyle=orthogonalEdgeStyle;rounded=0;orthogonalLoop=1;jettySize=auto;html=1;" parent="1" source="eF_WOxwGu_8auV4gQNJt-26" target="eF_WOxwGu_8auV4gQNJt-30" edge="1">
          <mxGeometry relative="1" as="geometry" />
        </mxCell>
        <mxCell id="xEmapFu_POOf8D5ossAb-185" style="edgeStyle=orthogonalEdgeStyle;rounded=0;orthogonalLoop=1;jettySize=auto;html=1;" parent="1" source="eF_WOxwGu_8auV4gQNJt-26" target="eF_WOxwGu_8auV4gQNJt-29" edge="1">
          <mxGeometry relative="1" as="geometry" />
        </mxCell>
        <mxCell id="xEmapFu_POOf8D5ossAb-186" style="edgeStyle=orthogonalEdgeStyle;rounded=0;orthogonalLoop=1;jettySize=auto;html=1;" parent="1" source="eF_WOxwGu_8auV4gQNJt-26" target="eF_WOxwGu_8auV4gQNJt-32" edge="1">
          <mxGeometry relative="1" as="geometry" />
        </mxCell>
        <mxCell id="xEmapFu_POOf8D5ossAb-187" style="edgeStyle=orthogonalEdgeStyle;rounded=0;orthogonalLoop=1;jettySize=auto;html=1;" parent="1" source="eF_WOxwGu_8auV4gQNJt-26" target="eF_WOxwGu_8auV4gQNJt-31" edge="1">
          <mxGeometry relative="1" as="geometry" />
        </mxCell>
        <mxCell id="xEmapFu_POOf8D5ossAb-188" style="edgeStyle=orthogonalEdgeStyle;rounded=0;orthogonalLoop=1;jettySize=auto;html=1;" parent="1" source="eF_WOxwGu_8auV4gQNJt-26" target="eF_WOxwGu_8auV4gQNJt-33" edge="1">
          <mxGeometry relative="1" as="geometry" />
        </mxCell>
        <mxCell id="xEmapFu_POOf8D5ossAb-189" style="edgeStyle=orthogonalEdgeStyle;rounded=0;orthogonalLoop=1;jettySize=auto;html=1;" parent="1" source="eF_WOxwGu_8auV4gQNJt-26" target="eF_WOxwGu_8auV4gQNJt-34" edge="1">
          <mxGeometry relative="1" as="geometry" />
        </mxCell>
        <mxCell id="xEmapFu_POOf8D5ossAb-190" style="edgeStyle=orthogonalEdgeStyle;rounded=0;orthogonalLoop=1;jettySize=auto;html=1;" parent="1" source="eF_WOxwGu_8auV4gQNJt-26" target="eF_WOxwGu_8auV4gQNJt-35" edge="1">
          <mxGeometry relative="1" as="geometry" />
        </mxCell>
        <mxCell id="xEmapFu_POOf8D5ossAb-191" style="edgeStyle=orthogonalEdgeStyle;rounded=0;orthogonalLoop=1;jettySize=auto;html=1;" parent="1" source="eF_WOxwGu_8auV4gQNJt-26" target="eF_WOxwGu_8auV4gQNJt-36" edge="1">
          <mxGeometry relative="1" as="geometry" />
        </mxCell>
        <mxCell id="xEmapFu_POOf8D5ossAb-192" style="edgeStyle=orthogonalEdgeStyle;rounded=0;orthogonalLoop=1;jettySize=auto;html=1;" parent="1" source="eF_WOxwGu_8auV4gQNJt-26" target="eF_WOxwGu_8auV4gQNJt-37" edge="1">
          <mxGeometry relative="1" as="geometry" />
        </mxCell>
        <mxCell id="eF_WOxwGu_8auV4gQNJt-26" value="Visible" style="text;html=1;align=center;verticalAlign=middle;resizable=0;points=[];autosize=1;strokeColor=none;fillColor=none;fontSize=27;fontStyle=1;strokeWidth=9;" parent="1" vertex="1">
          <mxGeometry x="1760.0000000000007" y="3420" width="100" height="50" as="geometry" />
        </mxCell>
        <mxCell id="xEmapFu_POOf8D5ossAb-211" style="edgeStyle=orthogonalEdgeStyle;rounded=0;orthogonalLoop=1;jettySize=auto;html=1;" parent="1" source="eF_WOxwGu_8auV4gQNJt-27" target="eF_WOxwGu_8auV4gQNJt-18" edge="1">
          <mxGeometry relative="1" as="geometry" />
        </mxCell>
        <mxCell id="xEmapFu_POOf8D5ossAb-212" style="edgeStyle=orthogonalEdgeStyle;rounded=0;orthogonalLoop=1;jettySize=auto;html=1;" parent="1" source="eF_WOxwGu_8auV4gQNJt-27" target="eF_WOxwGu_8auV4gQNJt-19" edge="1">
          <mxGeometry relative="1" as="geometry" />
        </mxCell>
        <mxCell id="xEmapFu_POOf8D5ossAb-213" style="edgeStyle=orthogonalEdgeStyle;rounded=0;orthogonalLoop=1;jettySize=auto;html=1;" parent="1" source="eF_WOxwGu_8auV4gQNJt-27" target="eF_WOxwGu_8auV4gQNJt-20" edge="1">
          <mxGeometry relative="1" as="geometry" />
        </mxCell>
        <mxCell id="xEmapFu_POOf8D5ossAb-215" style="edgeStyle=orthogonalEdgeStyle;rounded=0;orthogonalLoop=1;jettySize=auto;html=1;" parent="1" source="eF_WOxwGu_8auV4gQNJt-27" target="eF_WOxwGu_8auV4gQNJt-22" edge="1">
          <mxGeometry relative="1" as="geometry" />
        </mxCell>
        <mxCell id="xEmapFu_POOf8D5ossAb-216" style="edgeStyle=orthogonalEdgeStyle;rounded=0;orthogonalLoop=1;jettySize=auto;html=1;" parent="1" source="eF_WOxwGu_8auV4gQNJt-27" target="eF_WOxwGu_8auV4gQNJt-21" edge="1">
          <mxGeometry relative="1" as="geometry" />
        </mxCell>
        <mxCell id="xEmapFu_POOf8D5ossAb-218" style="edgeStyle=orthogonalEdgeStyle;rounded=0;orthogonalLoop=1;jettySize=auto;html=1;" parent="1" source="eF_WOxwGu_8auV4gQNJt-27" target="eF_WOxwGu_8auV4gQNJt-24" edge="1">
          <mxGeometry relative="1" as="geometry" />
        </mxCell>
        <mxCell id="xEmapFu_POOf8D5ossAb-219" style="edgeStyle=orthogonalEdgeStyle;rounded=0;orthogonalLoop=1;jettySize=auto;html=1;" parent="1" source="eF_WOxwGu_8auV4gQNJt-27" target="eF_WOxwGu_8auV4gQNJt-23" edge="1">
          <mxGeometry relative="1" as="geometry" />
        </mxCell>
        <mxCell id="xEmapFu_POOf8D5ossAb-220" style="edgeStyle=orthogonalEdgeStyle;rounded=0;orthogonalLoop=1;jettySize=auto;html=1;" parent="1" source="eF_WOxwGu_8auV4gQNJt-27" target="eF_WOxwGu_8auV4gQNJt-26" edge="1">
          <mxGeometry relative="1" as="geometry" />
        </mxCell>
        <mxCell id="xEmapFu_POOf8D5ossAb-221" style="edgeStyle=orthogonalEdgeStyle;rounded=0;orthogonalLoop=1;jettySize=auto;html=1;" parent="1" source="eF_WOxwGu_8auV4gQNJt-27" target="eF_WOxwGu_8auV4gQNJt-25" edge="1">
          <mxGeometry relative="1" as="geometry" />
        </mxCell>
        <mxCell id="xEmapFu_POOf8D5ossAb-222" style="edgeStyle=orthogonalEdgeStyle;rounded=0;orthogonalLoop=1;jettySize=auto;html=1;" parent="1" source="eF_WOxwGu_8auV4gQNJt-27" target="eF_WOxwGu_8auV4gQNJt-30" edge="1">
          <mxGeometry relative="1" as="geometry" />
        </mxCell>
        <mxCell id="xEmapFu_POOf8D5ossAb-223" style="edgeStyle=orthogonalEdgeStyle;rounded=0;orthogonalLoop=1;jettySize=auto;html=1;" parent="1" source="eF_WOxwGu_8auV4gQNJt-27" target="eF_WOxwGu_8auV4gQNJt-29" edge="1">
          <mxGeometry relative="1" as="geometry" />
        </mxCell>
        <mxCell id="xEmapFu_POOf8D5ossAb-224" style="edgeStyle=orthogonalEdgeStyle;rounded=0;orthogonalLoop=1;jettySize=auto;html=1;" parent="1" source="eF_WOxwGu_8auV4gQNJt-27" target="eF_WOxwGu_8auV4gQNJt-32" edge="1">
          <mxGeometry relative="1" as="geometry" />
        </mxCell>
        <mxCell id="xEmapFu_POOf8D5ossAb-225" style="edgeStyle=orthogonalEdgeStyle;rounded=0;orthogonalLoop=1;jettySize=auto;html=1;" parent="1" source="eF_WOxwGu_8auV4gQNJt-27" target="eF_WOxwGu_8auV4gQNJt-31" edge="1">
          <mxGeometry relative="1" as="geometry" />
        </mxCell>
        <mxCell id="xEmapFu_POOf8D5ossAb-226" style="edgeStyle=orthogonalEdgeStyle;rounded=0;orthogonalLoop=1;jettySize=auto;html=1;" parent="1" source="eF_WOxwGu_8auV4gQNJt-27" target="eF_WOxwGu_8auV4gQNJt-33" edge="1">
          <mxGeometry relative="1" as="geometry" />
        </mxCell>
        <mxCell id="xEmapFu_POOf8D5ossAb-227" style="edgeStyle=orthogonalEdgeStyle;rounded=0;orthogonalLoop=1;jettySize=auto;html=1;" parent="1" source="eF_WOxwGu_8auV4gQNJt-27" target="eF_WOxwGu_8auV4gQNJt-34" edge="1">
          <mxGeometry relative="1" as="geometry" />
        </mxCell>
        <mxCell id="xEmapFu_POOf8D5ossAb-228" style="edgeStyle=orthogonalEdgeStyle;rounded=0;orthogonalLoop=1;jettySize=auto;html=1;" parent="1" source="eF_WOxwGu_8auV4gQNJt-27" target="eF_WOxwGu_8auV4gQNJt-35" edge="1">
          <mxGeometry relative="1" as="geometry" />
        </mxCell>
        <mxCell id="xEmapFu_POOf8D5ossAb-229" style="edgeStyle=orthogonalEdgeStyle;rounded=0;orthogonalLoop=1;jettySize=auto;html=1;" parent="1" source="eF_WOxwGu_8auV4gQNJt-27" target="eF_WOxwGu_8auV4gQNJt-36" edge="1">
          <mxGeometry relative="1" as="geometry" />
        </mxCell>
        <mxCell id="xEmapFu_POOf8D5ossAb-230" style="edgeStyle=orthogonalEdgeStyle;rounded=0;orthogonalLoop=1;jettySize=auto;html=1;" parent="1" source="eF_WOxwGu_8auV4gQNJt-27" target="eF_WOxwGu_8auV4gQNJt-37" edge="1">
          <mxGeometry relative="1" as="geometry" />
        </mxCell>
        <mxCell id="eF_WOxwGu_8auV4gQNJt-27" value="No" style="text;html=1;align=center;verticalAlign=middle;resizable=0;points=[];autosize=1;strokeColor=none;fillColor=none;fontSize=27;fontStyle=1;strokeWidth=9;" parent="1" vertex="1">
          <mxGeometry x="2120.000000000001" y="3600" width="60" height="50" as="geometry" />
        </mxCell>
        <mxCell id="xEmapFu_POOf8D5ossAb-231" style="edgeStyle=orthogonalEdgeStyle;rounded=0;orthogonalLoop=1;jettySize=auto;html=1;" parent="1" source="eF_WOxwGu_8auV4gQNJt-28" target="eF_WOxwGu_8auV4gQNJt-18" edge="1">
          <mxGeometry relative="1" as="geometry" />
        </mxCell>
        <mxCell id="xEmapFu_POOf8D5ossAb-232" style="edgeStyle=orthogonalEdgeStyle;rounded=0;orthogonalLoop=1;jettySize=auto;html=1;" parent="1" source="eF_WOxwGu_8auV4gQNJt-28" target="eF_WOxwGu_8auV4gQNJt-19" edge="1">
          <mxGeometry relative="1" as="geometry" />
        </mxCell>
        <mxCell id="xEmapFu_POOf8D5ossAb-233" style="edgeStyle=orthogonalEdgeStyle;rounded=0;orthogonalLoop=1;jettySize=auto;html=1;" parent="1" source="eF_WOxwGu_8auV4gQNJt-28" target="eF_WOxwGu_8auV4gQNJt-20" edge="1">
          <mxGeometry relative="1" as="geometry" />
        </mxCell>
        <mxCell id="xEmapFu_POOf8D5ossAb-234" style="edgeStyle=orthogonalEdgeStyle;rounded=0;orthogonalLoop=1;jettySize=auto;html=1;" parent="1" source="eF_WOxwGu_8auV4gQNJt-28" target="eF_WOxwGu_8auV4gQNJt-22" edge="1">
          <mxGeometry relative="1" as="geometry" />
        </mxCell>
        <mxCell id="xEmapFu_POOf8D5ossAb-235" style="edgeStyle=orthogonalEdgeStyle;rounded=0;orthogonalLoop=1;jettySize=auto;html=1;" parent="1" source="eF_WOxwGu_8auV4gQNJt-28" target="eF_WOxwGu_8auV4gQNJt-21" edge="1">
          <mxGeometry relative="1" as="geometry" />
        </mxCell>
        <mxCell id="xEmapFu_POOf8D5ossAb-236" style="edgeStyle=orthogonalEdgeStyle;rounded=0;orthogonalLoop=1;jettySize=auto;html=1;" parent="1" source="eF_WOxwGu_8auV4gQNJt-28" target="eF_WOxwGu_8auV4gQNJt-24" edge="1">
          <mxGeometry relative="1" as="geometry" />
        </mxCell>
        <mxCell id="xEmapFu_POOf8D5ossAb-237" style="edgeStyle=orthogonalEdgeStyle;rounded=0;orthogonalLoop=1;jettySize=auto;html=1;" parent="1" source="eF_WOxwGu_8auV4gQNJt-28" target="eF_WOxwGu_8auV4gQNJt-23" edge="1">
          <mxGeometry relative="1" as="geometry" />
        </mxCell>
        <mxCell id="xEmapFu_POOf8D5ossAb-238" style="edgeStyle=orthogonalEdgeStyle;rounded=0;orthogonalLoop=1;jettySize=auto;html=1;" parent="1" source="eF_WOxwGu_8auV4gQNJt-28" target="eF_WOxwGu_8auV4gQNJt-26" edge="1">
          <mxGeometry relative="1" as="geometry" />
        </mxCell>
        <mxCell id="xEmapFu_POOf8D5ossAb-239" style="edgeStyle=orthogonalEdgeStyle;rounded=0;orthogonalLoop=1;jettySize=auto;html=1;" parent="1" source="eF_WOxwGu_8auV4gQNJt-28" target="eF_WOxwGu_8auV4gQNJt-25" edge="1">
          <mxGeometry relative="1" as="geometry" />
        </mxCell>
        <mxCell id="xEmapFu_POOf8D5ossAb-240" style="edgeStyle=orthogonalEdgeStyle;rounded=0;orthogonalLoop=1;jettySize=auto;html=1;" parent="1" source="eF_WOxwGu_8auV4gQNJt-28" target="eF_WOxwGu_8auV4gQNJt-30" edge="1">
          <mxGeometry relative="1" as="geometry" />
        </mxCell>
        <mxCell id="xEmapFu_POOf8D5ossAb-241" style="edgeStyle=orthogonalEdgeStyle;rounded=0;orthogonalLoop=1;jettySize=auto;html=1;" parent="1" source="eF_WOxwGu_8auV4gQNJt-28" target="eF_WOxwGu_8auV4gQNJt-29" edge="1">
          <mxGeometry relative="1" as="geometry" />
        </mxCell>
        <mxCell id="xEmapFu_POOf8D5ossAb-242" style="edgeStyle=orthogonalEdgeStyle;rounded=0;orthogonalLoop=1;jettySize=auto;html=1;" parent="1" source="eF_WOxwGu_8auV4gQNJt-28" target="eF_WOxwGu_8auV4gQNJt-32" edge="1">
          <mxGeometry relative="1" as="geometry" />
        </mxCell>
        <mxCell id="xEmapFu_POOf8D5ossAb-243" style="edgeStyle=orthogonalEdgeStyle;rounded=0;orthogonalLoop=1;jettySize=auto;html=1;" parent="1" source="eF_WOxwGu_8auV4gQNJt-28" target="eF_WOxwGu_8auV4gQNJt-31" edge="1">
          <mxGeometry relative="1" as="geometry" />
        </mxCell>
        <mxCell id="xEmapFu_POOf8D5ossAb-244" style="edgeStyle=orthogonalEdgeStyle;rounded=0;orthogonalLoop=1;jettySize=auto;html=1;" parent="1" source="eF_WOxwGu_8auV4gQNJt-28" target="eF_WOxwGu_8auV4gQNJt-33" edge="1">
          <mxGeometry relative="1" as="geometry" />
        </mxCell>
        <mxCell id="xEmapFu_POOf8D5ossAb-245" style="edgeStyle=orthogonalEdgeStyle;rounded=0;orthogonalLoop=1;jettySize=auto;html=1;" parent="1" source="eF_WOxwGu_8auV4gQNJt-28" target="eF_WOxwGu_8auV4gQNJt-34" edge="1">
          <mxGeometry relative="1" as="geometry" />
        </mxCell>
        <mxCell id="xEmapFu_POOf8D5ossAb-246" style="edgeStyle=orthogonalEdgeStyle;rounded=0;orthogonalLoop=1;jettySize=auto;html=1;" parent="1" source="eF_WOxwGu_8auV4gQNJt-28" target="eF_WOxwGu_8auV4gQNJt-35" edge="1">
          <mxGeometry relative="1" as="geometry" />
        </mxCell>
        <mxCell id="xEmapFu_POOf8D5ossAb-247" style="edgeStyle=orthogonalEdgeStyle;rounded=0;orthogonalLoop=1;jettySize=auto;html=1;" parent="1" source="eF_WOxwGu_8auV4gQNJt-28" target="eF_WOxwGu_8auV4gQNJt-36" edge="1">
          <mxGeometry relative="1" as="geometry" />
        </mxCell>
        <mxCell id="xEmapFu_POOf8D5ossAb-248" style="edgeStyle=orthogonalEdgeStyle;rounded=0;orthogonalLoop=1;jettySize=auto;html=1;" parent="1" source="eF_WOxwGu_8auV4gQNJt-28" target="eF_WOxwGu_8auV4gQNJt-37" edge="1">
          <mxGeometry relative="1" as="geometry" />
        </mxCell>
        <mxCell id="eF_WOxwGu_8auV4gQNJt-28" value="Yes" style="text;html=1;align=center;verticalAlign=middle;resizable=0;points=[];autosize=1;strokeColor=none;fillColor=none;fontSize=27;fontStyle=1;strokeWidth=9;" parent="1" vertex="1">
          <mxGeometry x="2263.000000000001" y="3650" width="70" height="50" as="geometry" />
        </mxCell>
        <mxCell id="xEmapFu_POOf8D5ossAb-267" style="edgeStyle=orthogonalEdgeStyle;rounded=0;orthogonalLoop=1;jettySize=auto;html=1;" parent="1" source="eF_WOxwGu_8auV4gQNJt-29" target="eF_WOxwGu_8auV4gQNJt-18" edge="1">
          <mxGeometry relative="1" as="geometry" />
        </mxCell>
        <mxCell id="xEmapFu_POOf8D5ossAb-268" style="edgeStyle=orthogonalEdgeStyle;rounded=0;orthogonalLoop=1;jettySize=auto;html=1;" parent="1" source="eF_WOxwGu_8auV4gQNJt-29" target="eF_WOxwGu_8auV4gQNJt-19" edge="1">
          <mxGeometry relative="1" as="geometry" />
        </mxCell>
        <mxCell id="xEmapFu_POOf8D5ossAb-269" style="edgeStyle=orthogonalEdgeStyle;rounded=0;orthogonalLoop=1;jettySize=auto;html=1;" parent="1" source="eF_WOxwGu_8auV4gQNJt-29" target="eF_WOxwGu_8auV4gQNJt-20" edge="1">
          <mxGeometry relative="1" as="geometry" />
        </mxCell>
        <mxCell id="xEmapFu_POOf8D5ossAb-270" style="edgeStyle=orthogonalEdgeStyle;rounded=0;orthogonalLoop=1;jettySize=auto;html=1;" parent="1" source="eF_WOxwGu_8auV4gQNJt-29" target="eF_WOxwGu_8auV4gQNJt-22" edge="1">
          <mxGeometry relative="1" as="geometry" />
        </mxCell>
        <mxCell id="xEmapFu_POOf8D5ossAb-271" style="edgeStyle=orthogonalEdgeStyle;rounded=0;orthogonalLoop=1;jettySize=auto;html=1;" parent="1" source="eF_WOxwGu_8auV4gQNJt-29" target="eF_WOxwGu_8auV4gQNJt-21" edge="1">
          <mxGeometry relative="1" as="geometry" />
        </mxCell>
        <mxCell id="xEmapFu_POOf8D5ossAb-272" style="edgeStyle=orthogonalEdgeStyle;rounded=0;orthogonalLoop=1;jettySize=auto;html=1;" parent="1" source="eF_WOxwGu_8auV4gQNJt-29" target="eF_WOxwGu_8auV4gQNJt-24" edge="1">
          <mxGeometry relative="1" as="geometry" />
        </mxCell>
        <mxCell id="xEmapFu_POOf8D5ossAb-273" style="edgeStyle=orthogonalEdgeStyle;rounded=0;orthogonalLoop=1;jettySize=auto;html=1;" parent="1" source="eF_WOxwGu_8auV4gQNJt-29" target="eF_WOxwGu_8auV4gQNJt-23" edge="1">
          <mxGeometry relative="1" as="geometry" />
        </mxCell>
        <mxCell id="xEmapFu_POOf8D5ossAb-274" style="edgeStyle=orthogonalEdgeStyle;rounded=0;orthogonalLoop=1;jettySize=auto;html=1;" parent="1" source="eF_WOxwGu_8auV4gQNJt-29" target="eF_WOxwGu_8auV4gQNJt-26" edge="1">
          <mxGeometry relative="1" as="geometry" />
        </mxCell>
        <mxCell id="xEmapFu_POOf8D5ossAb-275" style="edgeStyle=orthogonalEdgeStyle;rounded=0;orthogonalLoop=1;jettySize=auto;html=1;" parent="1" source="eF_WOxwGu_8auV4gQNJt-29" target="eF_WOxwGu_8auV4gQNJt-25" edge="1">
          <mxGeometry relative="1" as="geometry" />
        </mxCell>
        <mxCell id="xEmapFu_POOf8D5ossAb-276" style="edgeStyle=orthogonalEdgeStyle;rounded=0;orthogonalLoop=1;jettySize=auto;html=1;" parent="1" source="eF_WOxwGu_8auV4gQNJt-29" target="eF_WOxwGu_8auV4gQNJt-27" edge="1">
          <mxGeometry relative="1" as="geometry" />
        </mxCell>
        <mxCell id="xEmapFu_POOf8D5ossAb-277" style="edgeStyle=orthogonalEdgeStyle;rounded=0;orthogonalLoop=1;jettySize=auto;html=1;" parent="1" source="eF_WOxwGu_8auV4gQNJt-29" target="eF_WOxwGu_8auV4gQNJt-28" edge="1">
          <mxGeometry relative="1" as="geometry" />
        </mxCell>
        <mxCell id="xEmapFu_POOf8D5ossAb-278" style="edgeStyle=orthogonalEdgeStyle;rounded=0;orthogonalLoop=1;jettySize=auto;html=1;" parent="1" source="eF_WOxwGu_8auV4gQNJt-29" target="eF_WOxwGu_8auV4gQNJt-32" edge="1">
          <mxGeometry relative="1" as="geometry" />
        </mxCell>
        <mxCell id="xEmapFu_POOf8D5ossAb-279" style="edgeStyle=orthogonalEdgeStyle;rounded=0;orthogonalLoop=1;jettySize=auto;html=1;" parent="1" source="eF_WOxwGu_8auV4gQNJt-29" target="eF_WOxwGu_8auV4gQNJt-31" edge="1">
          <mxGeometry relative="1" as="geometry" />
        </mxCell>
        <mxCell id="xEmapFu_POOf8D5ossAb-280" style="edgeStyle=orthogonalEdgeStyle;rounded=0;orthogonalLoop=1;jettySize=auto;html=1;" parent="1" source="eF_WOxwGu_8auV4gQNJt-29" target="eF_WOxwGu_8auV4gQNJt-33" edge="1">
          <mxGeometry relative="1" as="geometry" />
        </mxCell>
        <mxCell id="xEmapFu_POOf8D5ossAb-281" style="edgeStyle=orthogonalEdgeStyle;rounded=0;orthogonalLoop=1;jettySize=auto;html=1;" parent="1" source="eF_WOxwGu_8auV4gQNJt-29" target="eF_WOxwGu_8auV4gQNJt-34" edge="1">
          <mxGeometry relative="1" as="geometry" />
        </mxCell>
        <mxCell id="xEmapFu_POOf8D5ossAb-282" style="edgeStyle=orthogonalEdgeStyle;rounded=0;orthogonalLoop=1;jettySize=auto;html=1;" parent="1" source="eF_WOxwGu_8auV4gQNJt-29" target="eF_WOxwGu_8auV4gQNJt-35" edge="1">
          <mxGeometry relative="1" as="geometry" />
        </mxCell>
        <mxCell id="xEmapFu_POOf8D5ossAb-283" style="edgeStyle=orthogonalEdgeStyle;rounded=0;orthogonalLoop=1;jettySize=auto;html=1;" parent="1" source="eF_WOxwGu_8auV4gQNJt-29" target="eF_WOxwGu_8auV4gQNJt-36" edge="1">
          <mxGeometry relative="1" as="geometry" />
        </mxCell>
        <mxCell id="xEmapFu_POOf8D5ossAb-284" style="edgeStyle=orthogonalEdgeStyle;rounded=0;orthogonalLoop=1;jettySize=auto;html=1;" parent="1" source="eF_WOxwGu_8auV4gQNJt-29" target="eF_WOxwGu_8auV4gQNJt-37" edge="1">
          <mxGeometry relative="1" as="geometry" />
        </mxCell>
        <mxCell id="eF_WOxwGu_8auV4gQNJt-29" value="No" style="text;html=1;align=center;verticalAlign=middle;resizable=0;points=[];autosize=1;strokeColor=none;fillColor=none;fontSize=27;fontStyle=1;strokeWidth=9;" parent="1" vertex="1">
          <mxGeometry x="2523.000000000001" y="3800" width="60" height="50" as="geometry" />
        </mxCell>
        <mxCell id="xEmapFu_POOf8D5ossAb-249" style="edgeStyle=orthogonalEdgeStyle;rounded=0;orthogonalLoop=1;jettySize=auto;html=1;" parent="1" source="eF_WOxwGu_8auV4gQNJt-30" target="eF_WOxwGu_8auV4gQNJt-18" edge="1">
          <mxGeometry relative="1" as="geometry" />
        </mxCell>
        <mxCell id="xEmapFu_POOf8D5ossAb-250" style="edgeStyle=orthogonalEdgeStyle;rounded=0;orthogonalLoop=1;jettySize=auto;html=1;" parent="1" source="eF_WOxwGu_8auV4gQNJt-30" target="eF_WOxwGu_8auV4gQNJt-19" edge="1">
          <mxGeometry relative="1" as="geometry" />
        </mxCell>
        <mxCell id="xEmapFu_POOf8D5ossAb-251" style="edgeStyle=orthogonalEdgeStyle;rounded=0;orthogonalLoop=1;jettySize=auto;html=1;" parent="1" source="eF_WOxwGu_8auV4gQNJt-30" target="eF_WOxwGu_8auV4gQNJt-20" edge="1">
          <mxGeometry relative="1" as="geometry" />
        </mxCell>
        <mxCell id="xEmapFu_POOf8D5ossAb-252" style="edgeStyle=orthogonalEdgeStyle;rounded=0;orthogonalLoop=1;jettySize=auto;html=1;" parent="1" source="eF_WOxwGu_8auV4gQNJt-30" target="eF_WOxwGu_8auV4gQNJt-22" edge="1">
          <mxGeometry relative="1" as="geometry" />
        </mxCell>
        <mxCell id="xEmapFu_POOf8D5ossAb-253" style="edgeStyle=orthogonalEdgeStyle;rounded=0;orthogonalLoop=1;jettySize=auto;html=1;" parent="1" source="eF_WOxwGu_8auV4gQNJt-30" target="eF_WOxwGu_8auV4gQNJt-21" edge="1">
          <mxGeometry relative="1" as="geometry" />
        </mxCell>
        <mxCell id="xEmapFu_POOf8D5ossAb-254" style="edgeStyle=orthogonalEdgeStyle;rounded=0;orthogonalLoop=1;jettySize=auto;html=1;" parent="1" source="eF_WOxwGu_8auV4gQNJt-30" target="eF_WOxwGu_8auV4gQNJt-24" edge="1">
          <mxGeometry relative="1" as="geometry" />
        </mxCell>
        <mxCell id="xEmapFu_POOf8D5ossAb-255" style="edgeStyle=orthogonalEdgeStyle;rounded=0;orthogonalLoop=1;jettySize=auto;html=1;" parent="1" source="eF_WOxwGu_8auV4gQNJt-30" target="eF_WOxwGu_8auV4gQNJt-23" edge="1">
          <mxGeometry relative="1" as="geometry" />
        </mxCell>
        <mxCell id="xEmapFu_POOf8D5ossAb-256" style="edgeStyle=orthogonalEdgeStyle;rounded=0;orthogonalLoop=1;jettySize=auto;html=1;" parent="1" source="eF_WOxwGu_8auV4gQNJt-30" target="eF_WOxwGu_8auV4gQNJt-26" edge="1">
          <mxGeometry relative="1" as="geometry" />
        </mxCell>
        <mxCell id="xEmapFu_POOf8D5ossAb-257" style="edgeStyle=orthogonalEdgeStyle;rounded=0;orthogonalLoop=1;jettySize=auto;html=1;" parent="1" source="eF_WOxwGu_8auV4gQNJt-30" target="eF_WOxwGu_8auV4gQNJt-25" edge="1">
          <mxGeometry relative="1" as="geometry" />
        </mxCell>
        <mxCell id="xEmapFu_POOf8D5ossAb-258" style="edgeStyle=orthogonalEdgeStyle;rounded=0;orthogonalLoop=1;jettySize=auto;html=1;" parent="1" source="eF_WOxwGu_8auV4gQNJt-30" target="eF_WOxwGu_8auV4gQNJt-27" edge="1">
          <mxGeometry relative="1" as="geometry" />
        </mxCell>
        <mxCell id="xEmapFu_POOf8D5ossAb-259" style="edgeStyle=orthogonalEdgeStyle;rounded=0;orthogonalLoop=1;jettySize=auto;html=1;" parent="1" source="eF_WOxwGu_8auV4gQNJt-30" target="eF_WOxwGu_8auV4gQNJt-28" edge="1">
          <mxGeometry relative="1" as="geometry" />
        </mxCell>
        <mxCell id="xEmapFu_POOf8D5ossAb-260" style="edgeStyle=orthogonalEdgeStyle;rounded=0;orthogonalLoop=1;jettySize=auto;html=1;" parent="1" source="eF_WOxwGu_8auV4gQNJt-30" target="eF_WOxwGu_8auV4gQNJt-32" edge="1">
          <mxGeometry relative="1" as="geometry" />
        </mxCell>
        <mxCell id="xEmapFu_POOf8D5ossAb-261" style="edgeStyle=orthogonalEdgeStyle;rounded=0;orthogonalLoop=1;jettySize=auto;html=1;" parent="1" source="eF_WOxwGu_8auV4gQNJt-30" target="eF_WOxwGu_8auV4gQNJt-31" edge="1">
          <mxGeometry relative="1" as="geometry" />
        </mxCell>
        <mxCell id="xEmapFu_POOf8D5ossAb-262" style="edgeStyle=orthogonalEdgeStyle;rounded=0;orthogonalLoop=1;jettySize=auto;html=1;" parent="1" source="eF_WOxwGu_8auV4gQNJt-30" target="eF_WOxwGu_8auV4gQNJt-33" edge="1">
          <mxGeometry relative="1" as="geometry" />
        </mxCell>
        <mxCell id="xEmapFu_POOf8D5ossAb-263" style="edgeStyle=orthogonalEdgeStyle;rounded=0;orthogonalLoop=1;jettySize=auto;html=1;" parent="1" source="eF_WOxwGu_8auV4gQNJt-30" target="eF_WOxwGu_8auV4gQNJt-34" edge="1">
          <mxGeometry relative="1" as="geometry" />
        </mxCell>
        <mxCell id="xEmapFu_POOf8D5ossAb-264" style="edgeStyle=orthogonalEdgeStyle;rounded=0;orthogonalLoop=1;jettySize=auto;html=1;" parent="1" source="eF_WOxwGu_8auV4gQNJt-30" target="eF_WOxwGu_8auV4gQNJt-35" edge="1">
          <mxGeometry relative="1" as="geometry" />
        </mxCell>
        <mxCell id="xEmapFu_POOf8D5ossAb-265" style="edgeStyle=orthogonalEdgeStyle;rounded=0;orthogonalLoop=1;jettySize=auto;html=1;" parent="1" source="eF_WOxwGu_8auV4gQNJt-30" target="eF_WOxwGu_8auV4gQNJt-36" edge="1">
          <mxGeometry relative="1" as="geometry" />
        </mxCell>
        <mxCell id="xEmapFu_POOf8D5ossAb-266" style="edgeStyle=orthogonalEdgeStyle;rounded=0;orthogonalLoop=1;jettySize=auto;html=1;" parent="1" source="eF_WOxwGu_8auV4gQNJt-30" target="eF_WOxwGu_8auV4gQNJt-37" edge="1">
          <mxGeometry relative="1" as="geometry" />
        </mxCell>
        <mxCell id="eF_WOxwGu_8auV4gQNJt-30" value="Yes" style="text;html=1;align=center;verticalAlign=middle;resizable=0;points=[];autosize=1;strokeColor=none;fillColor=none;fontSize=27;fontStyle=1;strokeWidth=9;" parent="1" vertex="1">
          <mxGeometry x="2383.000000000001" y="3720" width="70" height="50" as="geometry" />
        </mxCell>
        <mxCell id="xEmapFu_POOf8D5ossAb-304" style="edgeStyle=orthogonalEdgeStyle;rounded=0;orthogonalLoop=1;jettySize=auto;html=1;" parent="1" source="eF_WOxwGu_8auV4gQNJt-31" target="eF_WOxwGu_8auV4gQNJt-18" edge="1">
          <mxGeometry relative="1" as="geometry" />
        </mxCell>
        <mxCell id="xEmapFu_POOf8D5ossAb-305" style="edgeStyle=orthogonalEdgeStyle;rounded=0;orthogonalLoop=1;jettySize=auto;html=1;" parent="1" source="eF_WOxwGu_8auV4gQNJt-31" target="eF_WOxwGu_8auV4gQNJt-19" edge="1">
          <mxGeometry relative="1" as="geometry" />
        </mxCell>
        <mxCell id="xEmapFu_POOf8D5ossAb-306" style="edgeStyle=orthogonalEdgeStyle;rounded=0;orthogonalLoop=1;jettySize=auto;html=1;" parent="1" source="eF_WOxwGu_8auV4gQNJt-31" target="eF_WOxwGu_8auV4gQNJt-20" edge="1">
          <mxGeometry relative="1" as="geometry" />
        </mxCell>
        <mxCell id="xEmapFu_POOf8D5ossAb-307" style="edgeStyle=orthogonalEdgeStyle;rounded=0;orthogonalLoop=1;jettySize=auto;html=1;" parent="1" source="eF_WOxwGu_8auV4gQNJt-31" target="eF_WOxwGu_8auV4gQNJt-22" edge="1">
          <mxGeometry relative="1" as="geometry" />
        </mxCell>
        <mxCell id="xEmapFu_POOf8D5ossAb-308" style="edgeStyle=orthogonalEdgeStyle;rounded=0;orthogonalLoop=1;jettySize=auto;html=1;" parent="1" source="eF_WOxwGu_8auV4gQNJt-31" target="eF_WOxwGu_8auV4gQNJt-21" edge="1">
          <mxGeometry relative="1" as="geometry" />
        </mxCell>
        <mxCell id="xEmapFu_POOf8D5ossAb-309" style="edgeStyle=orthogonalEdgeStyle;rounded=0;orthogonalLoop=1;jettySize=auto;html=1;" parent="1" source="eF_WOxwGu_8auV4gQNJt-31" target="eF_WOxwGu_8auV4gQNJt-24" edge="1">
          <mxGeometry relative="1" as="geometry" />
        </mxCell>
        <mxCell id="xEmapFu_POOf8D5ossAb-310" style="edgeStyle=orthogonalEdgeStyle;rounded=0;orthogonalLoop=1;jettySize=auto;html=1;" parent="1" source="eF_WOxwGu_8auV4gQNJt-31" target="eF_WOxwGu_8auV4gQNJt-23" edge="1">
          <mxGeometry relative="1" as="geometry" />
        </mxCell>
        <mxCell id="xEmapFu_POOf8D5ossAb-311" style="edgeStyle=orthogonalEdgeStyle;rounded=0;orthogonalLoop=1;jettySize=auto;html=1;" parent="1" source="eF_WOxwGu_8auV4gQNJt-31" target="eF_WOxwGu_8auV4gQNJt-26" edge="1">
          <mxGeometry relative="1" as="geometry" />
        </mxCell>
        <mxCell id="xEmapFu_POOf8D5ossAb-312" style="edgeStyle=orthogonalEdgeStyle;rounded=0;orthogonalLoop=1;jettySize=auto;html=1;" parent="1" source="eF_WOxwGu_8auV4gQNJt-31" target="eF_WOxwGu_8auV4gQNJt-25" edge="1">
          <mxGeometry relative="1" as="geometry" />
        </mxCell>
        <mxCell id="xEmapFu_POOf8D5ossAb-313" style="edgeStyle=orthogonalEdgeStyle;rounded=0;orthogonalLoop=1;jettySize=auto;html=1;" parent="1" source="eF_WOxwGu_8auV4gQNJt-31" target="eF_WOxwGu_8auV4gQNJt-27" edge="1">
          <mxGeometry relative="1" as="geometry" />
        </mxCell>
        <mxCell id="xEmapFu_POOf8D5ossAb-314" style="edgeStyle=orthogonalEdgeStyle;rounded=0;orthogonalLoop=1;jettySize=auto;html=1;" parent="1" source="eF_WOxwGu_8auV4gQNJt-31" target="eF_WOxwGu_8auV4gQNJt-28" edge="1">
          <mxGeometry relative="1" as="geometry" />
        </mxCell>
        <mxCell id="xEmapFu_POOf8D5ossAb-315" style="edgeStyle=orthogonalEdgeStyle;rounded=0;orthogonalLoop=1;jettySize=auto;html=1;" parent="1" source="eF_WOxwGu_8auV4gQNJt-31" target="eF_WOxwGu_8auV4gQNJt-30" edge="1">
          <mxGeometry relative="1" as="geometry" />
        </mxCell>
        <mxCell id="xEmapFu_POOf8D5ossAb-316" style="edgeStyle=orthogonalEdgeStyle;rounded=0;orthogonalLoop=1;jettySize=auto;html=1;" parent="1" source="eF_WOxwGu_8auV4gQNJt-31" target="eF_WOxwGu_8auV4gQNJt-29" edge="1">
          <mxGeometry relative="1" as="geometry" />
        </mxCell>
        <mxCell id="xEmapFu_POOf8D5ossAb-317" style="edgeStyle=orthogonalEdgeStyle;rounded=0;orthogonalLoop=1;jettySize=auto;html=1;" parent="1" source="eF_WOxwGu_8auV4gQNJt-31" target="eF_WOxwGu_8auV4gQNJt-33" edge="1">
          <mxGeometry relative="1" as="geometry" />
        </mxCell>
        <mxCell id="xEmapFu_POOf8D5ossAb-318" style="edgeStyle=orthogonalEdgeStyle;rounded=0;orthogonalLoop=1;jettySize=auto;html=1;" parent="1" source="eF_WOxwGu_8auV4gQNJt-31" target="eF_WOxwGu_8auV4gQNJt-34" edge="1">
          <mxGeometry relative="1" as="geometry" />
        </mxCell>
        <mxCell id="xEmapFu_POOf8D5ossAb-319" style="edgeStyle=orthogonalEdgeStyle;rounded=0;orthogonalLoop=1;jettySize=auto;html=1;" parent="1" source="eF_WOxwGu_8auV4gQNJt-31" target="eF_WOxwGu_8auV4gQNJt-35" edge="1">
          <mxGeometry relative="1" as="geometry" />
        </mxCell>
        <mxCell id="xEmapFu_POOf8D5ossAb-320" style="edgeStyle=orthogonalEdgeStyle;rounded=0;orthogonalLoop=1;jettySize=auto;html=1;" parent="1" source="eF_WOxwGu_8auV4gQNJt-31" target="eF_WOxwGu_8auV4gQNJt-36" edge="1">
          <mxGeometry relative="1" as="geometry" />
        </mxCell>
        <mxCell id="xEmapFu_POOf8D5ossAb-321" style="edgeStyle=orthogonalEdgeStyle;rounded=0;orthogonalLoop=1;jettySize=auto;html=1;" parent="1" source="eF_WOxwGu_8auV4gQNJt-31" target="eF_WOxwGu_8auV4gQNJt-37" edge="1">
          <mxGeometry relative="1" as="geometry" />
        </mxCell>
        <mxCell id="eF_WOxwGu_8auV4gQNJt-31" value="No" style="text;html=1;align=center;verticalAlign=middle;resizable=0;points=[];autosize=1;strokeColor=none;fillColor=none;fontSize=27;fontStyle=1;strokeWidth=9;" parent="1" vertex="1">
          <mxGeometry x="2780.000000000001" y="3990" width="60" height="50" as="geometry" />
        </mxCell>
        <mxCell id="xEmapFu_POOf8D5ossAb-285" style="edgeStyle=orthogonalEdgeStyle;rounded=0;orthogonalLoop=1;jettySize=auto;html=1;" parent="1" source="eF_WOxwGu_8auV4gQNJt-32" target="eF_WOxwGu_8auV4gQNJt-18" edge="1">
          <mxGeometry relative="1" as="geometry" />
        </mxCell>
        <mxCell id="xEmapFu_POOf8D5ossAb-286" style="edgeStyle=orthogonalEdgeStyle;rounded=0;orthogonalLoop=1;jettySize=auto;html=1;" parent="1" source="eF_WOxwGu_8auV4gQNJt-32" target="eF_WOxwGu_8auV4gQNJt-19" edge="1">
          <mxGeometry relative="1" as="geometry" />
        </mxCell>
        <mxCell id="xEmapFu_POOf8D5ossAb-287" style="edgeStyle=orthogonalEdgeStyle;rounded=0;orthogonalLoop=1;jettySize=auto;html=1;" parent="1" source="eF_WOxwGu_8auV4gQNJt-32" target="eF_WOxwGu_8auV4gQNJt-20" edge="1">
          <mxGeometry relative="1" as="geometry" />
        </mxCell>
        <mxCell id="xEmapFu_POOf8D5ossAb-288" style="edgeStyle=orthogonalEdgeStyle;rounded=0;orthogonalLoop=1;jettySize=auto;html=1;" parent="1" source="eF_WOxwGu_8auV4gQNJt-32" target="eF_WOxwGu_8auV4gQNJt-22" edge="1">
          <mxGeometry relative="1" as="geometry" />
        </mxCell>
        <mxCell id="xEmapFu_POOf8D5ossAb-289" style="edgeStyle=orthogonalEdgeStyle;rounded=0;orthogonalLoop=1;jettySize=auto;html=1;" parent="1" source="eF_WOxwGu_8auV4gQNJt-32" target="eF_WOxwGu_8auV4gQNJt-21" edge="1">
          <mxGeometry relative="1" as="geometry" />
        </mxCell>
        <mxCell id="xEmapFu_POOf8D5ossAb-290" style="edgeStyle=orthogonalEdgeStyle;rounded=0;orthogonalLoop=1;jettySize=auto;html=1;" parent="1" source="eF_WOxwGu_8auV4gQNJt-32" target="eF_WOxwGu_8auV4gQNJt-24" edge="1">
          <mxGeometry relative="1" as="geometry" />
        </mxCell>
        <mxCell id="xEmapFu_POOf8D5ossAb-291" style="edgeStyle=orthogonalEdgeStyle;rounded=0;orthogonalLoop=1;jettySize=auto;html=1;" parent="1" source="eF_WOxwGu_8auV4gQNJt-32" target="eF_WOxwGu_8auV4gQNJt-23" edge="1">
          <mxGeometry relative="1" as="geometry" />
        </mxCell>
        <mxCell id="xEmapFu_POOf8D5ossAb-292" style="edgeStyle=orthogonalEdgeStyle;rounded=0;orthogonalLoop=1;jettySize=auto;html=1;" parent="1" source="eF_WOxwGu_8auV4gQNJt-32" target="eF_WOxwGu_8auV4gQNJt-26" edge="1">
          <mxGeometry relative="1" as="geometry" />
        </mxCell>
        <mxCell id="xEmapFu_POOf8D5ossAb-293" style="edgeStyle=orthogonalEdgeStyle;rounded=0;orthogonalLoop=1;jettySize=auto;html=1;" parent="1" source="eF_WOxwGu_8auV4gQNJt-32" target="eF_WOxwGu_8auV4gQNJt-25" edge="1">
          <mxGeometry relative="1" as="geometry" />
        </mxCell>
        <mxCell id="xEmapFu_POOf8D5ossAb-294" style="edgeStyle=orthogonalEdgeStyle;rounded=0;orthogonalLoop=1;jettySize=auto;html=1;" parent="1" source="eF_WOxwGu_8auV4gQNJt-32" target="eF_WOxwGu_8auV4gQNJt-27" edge="1">
          <mxGeometry relative="1" as="geometry" />
        </mxCell>
        <mxCell id="xEmapFu_POOf8D5ossAb-295" style="edgeStyle=orthogonalEdgeStyle;rounded=0;orthogonalLoop=1;jettySize=auto;html=1;" parent="1" source="eF_WOxwGu_8auV4gQNJt-32" target="eF_WOxwGu_8auV4gQNJt-28" edge="1">
          <mxGeometry relative="1" as="geometry" />
        </mxCell>
        <mxCell id="xEmapFu_POOf8D5ossAb-296" style="edgeStyle=orthogonalEdgeStyle;rounded=0;orthogonalLoop=1;jettySize=auto;html=1;" parent="1" source="eF_WOxwGu_8auV4gQNJt-32" target="eF_WOxwGu_8auV4gQNJt-30" edge="1">
          <mxGeometry relative="1" as="geometry" />
        </mxCell>
        <mxCell id="xEmapFu_POOf8D5ossAb-297" style="edgeStyle=orthogonalEdgeStyle;rounded=0;orthogonalLoop=1;jettySize=auto;html=1;" parent="1" source="eF_WOxwGu_8auV4gQNJt-32" target="eF_WOxwGu_8auV4gQNJt-29" edge="1">
          <mxGeometry relative="1" as="geometry" />
        </mxCell>
        <mxCell id="xEmapFu_POOf8D5ossAb-298" style="edgeStyle=orthogonalEdgeStyle;rounded=0;orthogonalLoop=1;jettySize=auto;html=1;" parent="1" source="eF_WOxwGu_8auV4gQNJt-32" target="eF_WOxwGu_8auV4gQNJt-31" edge="1">
          <mxGeometry relative="1" as="geometry" />
        </mxCell>
        <mxCell id="xEmapFu_POOf8D5ossAb-299" style="edgeStyle=orthogonalEdgeStyle;rounded=0;orthogonalLoop=1;jettySize=auto;html=1;" parent="1" source="eF_WOxwGu_8auV4gQNJt-32" target="eF_WOxwGu_8auV4gQNJt-33" edge="1">
          <mxGeometry relative="1" as="geometry" />
        </mxCell>
        <mxCell id="xEmapFu_POOf8D5ossAb-300" style="edgeStyle=orthogonalEdgeStyle;rounded=0;orthogonalLoop=1;jettySize=auto;html=1;" parent="1" source="eF_WOxwGu_8auV4gQNJt-32" target="eF_WOxwGu_8auV4gQNJt-34" edge="1">
          <mxGeometry relative="1" as="geometry" />
        </mxCell>
        <mxCell id="xEmapFu_POOf8D5ossAb-301" style="edgeStyle=orthogonalEdgeStyle;rounded=0;orthogonalLoop=1;jettySize=auto;html=1;" parent="1" source="eF_WOxwGu_8auV4gQNJt-32" target="eF_WOxwGu_8auV4gQNJt-35" edge="1">
          <mxGeometry relative="1" as="geometry" />
        </mxCell>
        <mxCell id="xEmapFu_POOf8D5ossAb-302" style="edgeStyle=orthogonalEdgeStyle;rounded=0;orthogonalLoop=1;jettySize=auto;html=1;" parent="1" source="eF_WOxwGu_8auV4gQNJt-32" target="eF_WOxwGu_8auV4gQNJt-36" edge="1">
          <mxGeometry relative="1" as="geometry" />
        </mxCell>
        <mxCell id="xEmapFu_POOf8D5ossAb-303" style="edgeStyle=orthogonalEdgeStyle;rounded=0;orthogonalLoop=1;jettySize=auto;html=1;" parent="1" source="eF_WOxwGu_8auV4gQNJt-32" target="eF_WOxwGu_8auV4gQNJt-37" edge="1">
          <mxGeometry relative="1" as="geometry" />
        </mxCell>
        <mxCell id="eF_WOxwGu_8auV4gQNJt-32" value="Yes" style="text;html=1;align=center;verticalAlign=middle;resizable=0;points=[];autosize=1;strokeColor=none;fillColor=none;fontSize=27;fontStyle=1;strokeWidth=9;" parent="1" vertex="1">
          <mxGeometry x="2630.000000000001" y="3900" width="70" height="50" as="geometry" />
        </mxCell>
        <mxCell id="xEmapFu_POOf8D5ossAb-322" style="edgeStyle=orthogonalEdgeStyle;rounded=0;orthogonalLoop=1;jettySize=auto;html=1;" parent="1" source="eF_WOxwGu_8auV4gQNJt-33" target="eF_WOxwGu_8auV4gQNJt-18" edge="1">
          <mxGeometry relative="1" as="geometry" />
        </mxCell>
        <mxCell id="xEmapFu_POOf8D5ossAb-323" style="edgeStyle=orthogonalEdgeStyle;rounded=0;orthogonalLoop=1;jettySize=auto;html=1;" parent="1" source="eF_WOxwGu_8auV4gQNJt-33" target="eF_WOxwGu_8auV4gQNJt-19" edge="1">
          <mxGeometry relative="1" as="geometry" />
        </mxCell>
        <mxCell id="xEmapFu_POOf8D5ossAb-324" style="edgeStyle=orthogonalEdgeStyle;rounded=0;orthogonalLoop=1;jettySize=auto;html=1;" parent="1" source="eF_WOxwGu_8auV4gQNJt-33" target="eF_WOxwGu_8auV4gQNJt-20" edge="1">
          <mxGeometry relative="1" as="geometry" />
        </mxCell>
        <mxCell id="xEmapFu_POOf8D5ossAb-325" style="edgeStyle=orthogonalEdgeStyle;rounded=0;orthogonalLoop=1;jettySize=auto;html=1;" parent="1" source="eF_WOxwGu_8auV4gQNJt-33" target="eF_WOxwGu_8auV4gQNJt-22" edge="1">
          <mxGeometry relative="1" as="geometry" />
        </mxCell>
        <mxCell id="xEmapFu_POOf8D5ossAb-326" style="edgeStyle=orthogonalEdgeStyle;rounded=0;orthogonalLoop=1;jettySize=auto;html=1;" parent="1" source="eF_WOxwGu_8auV4gQNJt-33" target="eF_WOxwGu_8auV4gQNJt-21" edge="1">
          <mxGeometry relative="1" as="geometry" />
        </mxCell>
        <mxCell id="xEmapFu_POOf8D5ossAb-327" style="edgeStyle=orthogonalEdgeStyle;rounded=0;orthogonalLoop=1;jettySize=auto;html=1;" parent="1" source="eF_WOxwGu_8auV4gQNJt-33" target="eF_WOxwGu_8auV4gQNJt-24" edge="1">
          <mxGeometry relative="1" as="geometry" />
        </mxCell>
        <mxCell id="xEmapFu_POOf8D5ossAb-328" style="edgeStyle=orthogonalEdgeStyle;rounded=0;orthogonalLoop=1;jettySize=auto;html=1;" parent="1" source="eF_WOxwGu_8auV4gQNJt-33" target="eF_WOxwGu_8auV4gQNJt-23" edge="1">
          <mxGeometry relative="1" as="geometry" />
        </mxCell>
        <mxCell id="xEmapFu_POOf8D5ossAb-329" style="edgeStyle=orthogonalEdgeStyle;rounded=0;orthogonalLoop=1;jettySize=auto;html=1;" parent="1" source="eF_WOxwGu_8auV4gQNJt-33" target="eF_WOxwGu_8auV4gQNJt-26" edge="1">
          <mxGeometry relative="1" as="geometry" />
        </mxCell>
        <mxCell id="xEmapFu_POOf8D5ossAb-330" style="edgeStyle=orthogonalEdgeStyle;rounded=0;orthogonalLoop=1;jettySize=auto;html=1;" parent="1" source="eF_WOxwGu_8auV4gQNJt-33" target="eF_WOxwGu_8auV4gQNJt-25" edge="1">
          <mxGeometry relative="1" as="geometry" />
        </mxCell>
        <mxCell id="xEmapFu_POOf8D5ossAb-331" style="edgeStyle=orthogonalEdgeStyle;rounded=0;orthogonalLoop=1;jettySize=auto;html=1;" parent="1" source="eF_WOxwGu_8auV4gQNJt-33" target="eF_WOxwGu_8auV4gQNJt-27" edge="1">
          <mxGeometry relative="1" as="geometry" />
        </mxCell>
        <mxCell id="xEmapFu_POOf8D5ossAb-332" style="edgeStyle=orthogonalEdgeStyle;rounded=0;orthogonalLoop=1;jettySize=auto;html=1;" parent="1" source="eF_WOxwGu_8auV4gQNJt-33" target="eF_WOxwGu_8auV4gQNJt-28" edge="1">
          <mxGeometry relative="1" as="geometry" />
        </mxCell>
        <mxCell id="xEmapFu_POOf8D5ossAb-333" style="edgeStyle=orthogonalEdgeStyle;rounded=0;orthogonalLoop=1;jettySize=auto;html=1;" parent="1" source="eF_WOxwGu_8auV4gQNJt-33" target="eF_WOxwGu_8auV4gQNJt-30" edge="1">
          <mxGeometry relative="1" as="geometry" />
        </mxCell>
        <mxCell id="xEmapFu_POOf8D5ossAb-334" style="edgeStyle=orthogonalEdgeStyle;rounded=0;orthogonalLoop=1;jettySize=auto;html=1;" parent="1" source="eF_WOxwGu_8auV4gQNJt-33" target="eF_WOxwGu_8auV4gQNJt-29" edge="1">
          <mxGeometry relative="1" as="geometry" />
        </mxCell>
        <mxCell id="xEmapFu_POOf8D5ossAb-335" style="edgeStyle=orthogonalEdgeStyle;rounded=0;orthogonalLoop=1;jettySize=auto;html=1;" parent="1" source="eF_WOxwGu_8auV4gQNJt-33" target="eF_WOxwGu_8auV4gQNJt-32" edge="1">
          <mxGeometry relative="1" as="geometry" />
        </mxCell>
        <mxCell id="xEmapFu_POOf8D5ossAb-336" style="edgeStyle=orthogonalEdgeStyle;rounded=0;orthogonalLoop=1;jettySize=auto;html=1;" parent="1" source="eF_WOxwGu_8auV4gQNJt-33" target="eF_WOxwGu_8auV4gQNJt-31" edge="1">
          <mxGeometry relative="1" as="geometry" />
        </mxCell>
        <mxCell id="eF_WOxwGu_8auV4gQNJt-33" value="Geospatial Location" style="text;html=1;align=center;verticalAlign=middle;resizable=0;points=[];autosize=1;strokeColor=none;fillColor=none;fontSize=27;fontStyle=1;strokeWidth=9;" parent="1" vertex="1">
          <mxGeometry x="2880.000000000001" y="4060" width="260" height="50" as="geometry" />
        </mxCell>
        <mxCell id="xEmapFu_POOf8D5ossAb-337" style="edgeStyle=orthogonalEdgeStyle;rounded=0;orthogonalLoop=1;jettySize=auto;html=1;" parent="1" source="eF_WOxwGu_8auV4gQNJt-34" target="eF_WOxwGu_8auV4gQNJt-18" edge="1">
          <mxGeometry relative="1" as="geometry" />
        </mxCell>
        <mxCell id="xEmapFu_POOf8D5ossAb-338" style="edgeStyle=orthogonalEdgeStyle;rounded=0;orthogonalLoop=1;jettySize=auto;html=1;" parent="1" source="eF_WOxwGu_8auV4gQNJt-34" target="eF_WOxwGu_8auV4gQNJt-19" edge="1">
          <mxGeometry relative="1" as="geometry" />
        </mxCell>
        <mxCell id="xEmapFu_POOf8D5ossAb-339" style="edgeStyle=orthogonalEdgeStyle;rounded=0;orthogonalLoop=1;jettySize=auto;html=1;" parent="1" source="eF_WOxwGu_8auV4gQNJt-34" target="eF_WOxwGu_8auV4gQNJt-20" edge="1">
          <mxGeometry relative="1" as="geometry" />
        </mxCell>
        <mxCell id="xEmapFu_POOf8D5ossAb-340" style="edgeStyle=orthogonalEdgeStyle;rounded=0;orthogonalLoop=1;jettySize=auto;html=1;" parent="1" source="eF_WOxwGu_8auV4gQNJt-34" target="eF_WOxwGu_8auV4gQNJt-22" edge="1">
          <mxGeometry relative="1" as="geometry" />
        </mxCell>
        <mxCell id="xEmapFu_POOf8D5ossAb-341" style="edgeStyle=orthogonalEdgeStyle;rounded=0;orthogonalLoop=1;jettySize=auto;html=1;" parent="1" source="eF_WOxwGu_8auV4gQNJt-34" target="eF_WOxwGu_8auV4gQNJt-21" edge="1">
          <mxGeometry relative="1" as="geometry" />
        </mxCell>
        <mxCell id="xEmapFu_POOf8D5ossAb-342" style="edgeStyle=orthogonalEdgeStyle;rounded=0;orthogonalLoop=1;jettySize=auto;html=1;" parent="1" source="eF_WOxwGu_8auV4gQNJt-34" target="eF_WOxwGu_8auV4gQNJt-24" edge="1">
          <mxGeometry relative="1" as="geometry" />
        </mxCell>
        <mxCell id="xEmapFu_POOf8D5ossAb-343" style="edgeStyle=orthogonalEdgeStyle;rounded=0;orthogonalLoop=1;jettySize=auto;html=1;" parent="1" source="eF_WOxwGu_8auV4gQNJt-34" target="eF_WOxwGu_8auV4gQNJt-23" edge="1">
          <mxGeometry relative="1" as="geometry" />
        </mxCell>
        <mxCell id="xEmapFu_POOf8D5ossAb-344" style="edgeStyle=orthogonalEdgeStyle;rounded=0;orthogonalLoop=1;jettySize=auto;html=1;" parent="1" source="eF_WOxwGu_8auV4gQNJt-34" target="eF_WOxwGu_8auV4gQNJt-26" edge="1">
          <mxGeometry relative="1" as="geometry" />
        </mxCell>
        <mxCell id="xEmapFu_POOf8D5ossAb-345" style="edgeStyle=orthogonalEdgeStyle;rounded=0;orthogonalLoop=1;jettySize=auto;html=1;" parent="1" source="eF_WOxwGu_8auV4gQNJt-34" target="eF_WOxwGu_8auV4gQNJt-25" edge="1">
          <mxGeometry relative="1" as="geometry" />
        </mxCell>
        <mxCell id="xEmapFu_POOf8D5ossAb-346" style="edgeStyle=orthogonalEdgeStyle;rounded=0;orthogonalLoop=1;jettySize=auto;html=1;" parent="1" source="eF_WOxwGu_8auV4gQNJt-34" target="eF_WOxwGu_8auV4gQNJt-27" edge="1">
          <mxGeometry relative="1" as="geometry" />
        </mxCell>
        <mxCell id="xEmapFu_POOf8D5ossAb-347" style="edgeStyle=orthogonalEdgeStyle;rounded=0;orthogonalLoop=1;jettySize=auto;html=1;" parent="1" source="eF_WOxwGu_8auV4gQNJt-34" target="eF_WOxwGu_8auV4gQNJt-28" edge="1">
          <mxGeometry relative="1" as="geometry" />
        </mxCell>
        <mxCell id="xEmapFu_POOf8D5ossAb-348" style="edgeStyle=orthogonalEdgeStyle;rounded=0;orthogonalLoop=1;jettySize=auto;html=1;" parent="1" source="eF_WOxwGu_8auV4gQNJt-34" target="eF_WOxwGu_8auV4gQNJt-30" edge="1">
          <mxGeometry relative="1" as="geometry" />
        </mxCell>
        <mxCell id="xEmapFu_POOf8D5ossAb-349" style="edgeStyle=orthogonalEdgeStyle;rounded=0;orthogonalLoop=1;jettySize=auto;html=1;" parent="1" source="eF_WOxwGu_8auV4gQNJt-34" target="eF_WOxwGu_8auV4gQNJt-29" edge="1">
          <mxGeometry relative="1" as="geometry" />
        </mxCell>
        <mxCell id="xEmapFu_POOf8D5ossAb-350" style="edgeStyle=orthogonalEdgeStyle;rounded=0;orthogonalLoop=1;jettySize=auto;html=1;" parent="1" source="eF_WOxwGu_8auV4gQNJt-34" target="eF_WOxwGu_8auV4gQNJt-32" edge="1">
          <mxGeometry relative="1" as="geometry" />
        </mxCell>
        <mxCell id="xEmapFu_POOf8D5ossAb-352" style="edgeStyle=orthogonalEdgeStyle;rounded=0;orthogonalLoop=1;jettySize=auto;html=1;" parent="1" source="eF_WOxwGu_8auV4gQNJt-34" target="eF_WOxwGu_8auV4gQNJt-31" edge="1">
          <mxGeometry relative="1" as="geometry" />
        </mxCell>
        <mxCell id="xEmapFu_POOf8D5ossAb-353" style="edgeStyle=orthogonalEdgeStyle;rounded=0;orthogonalLoop=1;jettySize=auto;html=1;" parent="1" source="eF_WOxwGu_8auV4gQNJt-34" target="eF_WOxwGu_8auV4gQNJt-33" edge="1">
          <mxGeometry relative="1" as="geometry" />
        </mxCell>
        <mxCell id="xEmapFu_POOf8D5ossAb-354" style="edgeStyle=orthogonalEdgeStyle;rounded=0;orthogonalLoop=1;jettySize=auto;html=1;" parent="1" source="eF_WOxwGu_8auV4gQNJt-34" target="eF_WOxwGu_8auV4gQNJt-35" edge="1">
          <mxGeometry relative="1" as="geometry" />
        </mxCell>
        <mxCell id="xEmapFu_POOf8D5ossAb-355" style="edgeStyle=orthogonalEdgeStyle;rounded=0;orthogonalLoop=1;jettySize=auto;html=1;" parent="1" source="eF_WOxwGu_8auV4gQNJt-34" target="eF_WOxwGu_8auV4gQNJt-36" edge="1">
          <mxGeometry relative="1" as="geometry" />
        </mxCell>
        <mxCell id="xEmapFu_POOf8D5ossAb-356" style="edgeStyle=orthogonalEdgeStyle;rounded=0;orthogonalLoop=1;jettySize=auto;html=1;" parent="1" source="eF_WOxwGu_8auV4gQNJt-34" target="eF_WOxwGu_8auV4gQNJt-37" edge="1">
          <mxGeometry relative="1" as="geometry" />
        </mxCell>
        <mxCell id="eF_WOxwGu_8auV4gQNJt-34" value="UAV Mission" style="text;html=1;align=center;verticalAlign=middle;resizable=0;points=[];autosize=1;strokeColor=none;fillColor=none;fontSize=27;fontStyle=1;strokeWidth=9;" parent="1" vertex="1">
          <mxGeometry x="3080.000000000001" y="4190" width="180" height="50" as="geometry" />
        </mxCell>
        <mxCell id="xEmapFu_POOf8D5ossAb-357" style="edgeStyle=orthogonalEdgeStyle;rounded=0;orthogonalLoop=1;jettySize=auto;html=1;" parent="1" source="eF_WOxwGu_8auV4gQNJt-35" target="eF_WOxwGu_8auV4gQNJt-18" edge="1">
          <mxGeometry relative="1" as="geometry" />
        </mxCell>
        <mxCell id="xEmapFu_POOf8D5ossAb-358" style="edgeStyle=orthogonalEdgeStyle;rounded=0;orthogonalLoop=1;jettySize=auto;html=1;" parent="1" source="eF_WOxwGu_8auV4gQNJt-35" target="eF_WOxwGu_8auV4gQNJt-19" edge="1">
          <mxGeometry relative="1" as="geometry" />
        </mxCell>
        <mxCell id="xEmapFu_POOf8D5ossAb-359" style="edgeStyle=orthogonalEdgeStyle;rounded=0;orthogonalLoop=1;jettySize=auto;html=1;" parent="1" source="eF_WOxwGu_8auV4gQNJt-35" target="eF_WOxwGu_8auV4gQNJt-20" edge="1">
          <mxGeometry relative="1" as="geometry" />
        </mxCell>
        <mxCell id="xEmapFu_POOf8D5ossAb-360" style="edgeStyle=orthogonalEdgeStyle;rounded=0;orthogonalLoop=1;jettySize=auto;html=1;" parent="1" source="eF_WOxwGu_8auV4gQNJt-35" target="eF_WOxwGu_8auV4gQNJt-22" edge="1">
          <mxGeometry relative="1" as="geometry" />
        </mxCell>
        <mxCell id="xEmapFu_POOf8D5ossAb-361" style="edgeStyle=orthogonalEdgeStyle;rounded=0;orthogonalLoop=1;jettySize=auto;html=1;" parent="1" source="eF_WOxwGu_8auV4gQNJt-35" target="eF_WOxwGu_8auV4gQNJt-21" edge="1">
          <mxGeometry relative="1" as="geometry" />
        </mxCell>
        <mxCell id="xEmapFu_POOf8D5ossAb-362" style="edgeStyle=orthogonalEdgeStyle;rounded=0;orthogonalLoop=1;jettySize=auto;html=1;" parent="1" source="eF_WOxwGu_8auV4gQNJt-35" target="eF_WOxwGu_8auV4gQNJt-24" edge="1">
          <mxGeometry relative="1" as="geometry" />
        </mxCell>
        <mxCell id="xEmapFu_POOf8D5ossAb-363" style="edgeStyle=orthogonalEdgeStyle;rounded=0;orthogonalLoop=1;jettySize=auto;html=1;" parent="1" source="eF_WOxwGu_8auV4gQNJt-35" target="eF_WOxwGu_8auV4gQNJt-23" edge="1">
          <mxGeometry relative="1" as="geometry" />
        </mxCell>
        <mxCell id="xEmapFu_POOf8D5ossAb-364" style="edgeStyle=orthogonalEdgeStyle;rounded=0;orthogonalLoop=1;jettySize=auto;html=1;" parent="1" source="eF_WOxwGu_8auV4gQNJt-35" target="eF_WOxwGu_8auV4gQNJt-26" edge="1">
          <mxGeometry relative="1" as="geometry" />
        </mxCell>
        <mxCell id="xEmapFu_POOf8D5ossAb-365" style="edgeStyle=orthogonalEdgeStyle;rounded=0;orthogonalLoop=1;jettySize=auto;html=1;" parent="1" source="eF_WOxwGu_8auV4gQNJt-35" target="eF_WOxwGu_8auV4gQNJt-25" edge="1">
          <mxGeometry relative="1" as="geometry" />
        </mxCell>
        <mxCell id="xEmapFu_POOf8D5ossAb-366" style="edgeStyle=orthogonalEdgeStyle;rounded=0;orthogonalLoop=1;jettySize=auto;html=1;" parent="1" source="eF_WOxwGu_8auV4gQNJt-35" target="eF_WOxwGu_8auV4gQNJt-27" edge="1">
          <mxGeometry relative="1" as="geometry" />
        </mxCell>
        <mxCell id="xEmapFu_POOf8D5ossAb-367" style="edgeStyle=orthogonalEdgeStyle;rounded=0;orthogonalLoop=1;jettySize=auto;html=1;" parent="1" source="eF_WOxwGu_8auV4gQNJt-35" target="eF_WOxwGu_8auV4gQNJt-28" edge="1">
          <mxGeometry relative="1" as="geometry" />
        </mxCell>
        <mxCell id="xEmapFu_POOf8D5ossAb-368" style="edgeStyle=orthogonalEdgeStyle;rounded=0;orthogonalLoop=1;jettySize=auto;html=1;" parent="1" source="eF_WOxwGu_8auV4gQNJt-35" target="eF_WOxwGu_8auV4gQNJt-30" edge="1">
          <mxGeometry relative="1" as="geometry" />
        </mxCell>
        <mxCell id="xEmapFu_POOf8D5ossAb-369" style="edgeStyle=orthogonalEdgeStyle;rounded=0;orthogonalLoop=1;jettySize=auto;html=1;" parent="1" source="eF_WOxwGu_8auV4gQNJt-35" target="eF_WOxwGu_8auV4gQNJt-29" edge="1">
          <mxGeometry relative="1" as="geometry" />
        </mxCell>
        <mxCell id="xEmapFu_POOf8D5ossAb-370" style="edgeStyle=orthogonalEdgeStyle;rounded=0;orthogonalLoop=1;jettySize=auto;html=1;" parent="1" source="eF_WOxwGu_8auV4gQNJt-35" target="eF_WOxwGu_8auV4gQNJt-32" edge="1">
          <mxGeometry relative="1" as="geometry" />
        </mxCell>
        <mxCell id="xEmapFu_POOf8D5ossAb-371" style="edgeStyle=orthogonalEdgeStyle;rounded=0;orthogonalLoop=1;jettySize=auto;html=1;" parent="1" source="eF_WOxwGu_8auV4gQNJt-35" target="eF_WOxwGu_8auV4gQNJt-31" edge="1">
          <mxGeometry relative="1" as="geometry" />
        </mxCell>
        <mxCell id="xEmapFu_POOf8D5ossAb-372" style="edgeStyle=orthogonalEdgeStyle;rounded=0;orthogonalLoop=1;jettySize=auto;html=1;" parent="1" source="eF_WOxwGu_8auV4gQNJt-35" target="eF_WOxwGu_8auV4gQNJt-33" edge="1">
          <mxGeometry relative="1" as="geometry" />
        </mxCell>
        <mxCell id="xEmapFu_POOf8D5ossAb-373" style="edgeStyle=orthogonalEdgeStyle;rounded=0;orthogonalLoop=1;jettySize=auto;html=1;" parent="1" source="eF_WOxwGu_8auV4gQNJt-35" target="eF_WOxwGu_8auV4gQNJt-34" edge="1">
          <mxGeometry relative="1" as="geometry" />
        </mxCell>
        <mxCell id="xEmapFu_POOf8D5ossAb-374" style="edgeStyle=orthogonalEdgeStyle;rounded=0;orthogonalLoop=1;jettySize=auto;html=1;" parent="1" source="eF_WOxwGu_8auV4gQNJt-35" target="eF_WOxwGu_8auV4gQNJt-36" edge="1">
          <mxGeometry relative="1" as="geometry" />
        </mxCell>
        <mxCell id="xEmapFu_POOf8D5ossAb-377" style="edgeStyle=orthogonalEdgeStyle;rounded=0;orthogonalLoop=1;jettySize=auto;html=1;" parent="1" source="eF_WOxwGu_8auV4gQNJt-35" target="eF_WOxwGu_8auV4gQNJt-37" edge="1">
          <mxGeometry relative="1" as="geometry" />
        </mxCell>
        <mxCell id="eF_WOxwGu_8auV4gQNJt-35" value="Proximity" style="text;html=1;align=center;verticalAlign=middle;resizable=0;points=[];autosize=1;strokeColor=none;fillColor=none;fontSize=27;fontStyle=1;strokeWidth=9;" parent="1" vertex="1">
          <mxGeometry x="3287.500000000001" y="4300" width="130" height="50" as="geometry" />
        </mxCell>
        <mxCell id="xEmapFu_POOf8D5ossAb-378" style="edgeStyle=orthogonalEdgeStyle;rounded=0;orthogonalLoop=1;jettySize=auto;html=1;" parent="1" source="eF_WOxwGu_8auV4gQNJt-36" target="eF_WOxwGu_8auV4gQNJt-18" edge="1">
          <mxGeometry relative="1" as="geometry" />
        </mxCell>
        <mxCell id="xEmapFu_POOf8D5ossAb-379" style="edgeStyle=orthogonalEdgeStyle;rounded=0;orthogonalLoop=1;jettySize=auto;html=1;" parent="1" source="eF_WOxwGu_8auV4gQNJt-36" target="eF_WOxwGu_8auV4gQNJt-19" edge="1">
          <mxGeometry relative="1" as="geometry" />
        </mxCell>
        <mxCell id="xEmapFu_POOf8D5ossAb-380" style="edgeStyle=orthogonalEdgeStyle;rounded=0;orthogonalLoop=1;jettySize=auto;html=1;" parent="1" source="eF_WOxwGu_8auV4gQNJt-36" target="eF_WOxwGu_8auV4gQNJt-20" edge="1">
          <mxGeometry relative="1" as="geometry" />
        </mxCell>
        <mxCell id="xEmapFu_POOf8D5ossAb-381" style="edgeStyle=orthogonalEdgeStyle;rounded=0;orthogonalLoop=1;jettySize=auto;html=1;" parent="1" source="eF_WOxwGu_8auV4gQNJt-36" target="eF_WOxwGu_8auV4gQNJt-22" edge="1">
          <mxGeometry relative="1" as="geometry" />
        </mxCell>
        <mxCell id="xEmapFu_POOf8D5ossAb-382" style="edgeStyle=orthogonalEdgeStyle;rounded=0;orthogonalLoop=1;jettySize=auto;html=1;" parent="1" source="eF_WOxwGu_8auV4gQNJt-36" target="eF_WOxwGu_8auV4gQNJt-21" edge="1">
          <mxGeometry relative="1" as="geometry" />
        </mxCell>
        <mxCell id="xEmapFu_POOf8D5ossAb-383" style="edgeStyle=orthogonalEdgeStyle;rounded=0;orthogonalLoop=1;jettySize=auto;html=1;" parent="1" source="eF_WOxwGu_8auV4gQNJt-36" target="eF_WOxwGu_8auV4gQNJt-24" edge="1">
          <mxGeometry relative="1" as="geometry" />
        </mxCell>
        <mxCell id="xEmapFu_POOf8D5ossAb-384" style="edgeStyle=orthogonalEdgeStyle;rounded=0;orthogonalLoop=1;jettySize=auto;html=1;" parent="1" source="eF_WOxwGu_8auV4gQNJt-36" target="eF_WOxwGu_8auV4gQNJt-23" edge="1">
          <mxGeometry relative="1" as="geometry" />
        </mxCell>
        <mxCell id="xEmapFu_POOf8D5ossAb-385" style="edgeStyle=orthogonalEdgeStyle;rounded=0;orthogonalLoop=1;jettySize=auto;html=1;" parent="1" source="eF_WOxwGu_8auV4gQNJt-36" target="eF_WOxwGu_8auV4gQNJt-26" edge="1">
          <mxGeometry relative="1" as="geometry" />
        </mxCell>
        <mxCell id="xEmapFu_POOf8D5ossAb-386" style="edgeStyle=orthogonalEdgeStyle;rounded=0;orthogonalLoop=1;jettySize=auto;html=1;" parent="1" source="eF_WOxwGu_8auV4gQNJt-36" target="eF_WOxwGu_8auV4gQNJt-25" edge="1">
          <mxGeometry relative="1" as="geometry" />
        </mxCell>
        <mxCell id="xEmapFu_POOf8D5ossAb-387" style="edgeStyle=orthogonalEdgeStyle;rounded=0;orthogonalLoop=1;jettySize=auto;html=1;" parent="1" source="eF_WOxwGu_8auV4gQNJt-36" target="eF_WOxwGu_8auV4gQNJt-27" edge="1">
          <mxGeometry relative="1" as="geometry" />
        </mxCell>
        <mxCell id="xEmapFu_POOf8D5ossAb-388" style="edgeStyle=orthogonalEdgeStyle;rounded=0;orthogonalLoop=1;jettySize=auto;html=1;" parent="1" source="eF_WOxwGu_8auV4gQNJt-36" target="eF_WOxwGu_8auV4gQNJt-28" edge="1">
          <mxGeometry relative="1" as="geometry" />
        </mxCell>
        <mxCell id="xEmapFu_POOf8D5ossAb-389" style="edgeStyle=orthogonalEdgeStyle;rounded=0;orthogonalLoop=1;jettySize=auto;html=1;" parent="1" source="eF_WOxwGu_8auV4gQNJt-36" target="eF_WOxwGu_8auV4gQNJt-30" edge="1">
          <mxGeometry relative="1" as="geometry" />
        </mxCell>
        <mxCell id="xEmapFu_POOf8D5ossAb-390" style="edgeStyle=orthogonalEdgeStyle;rounded=0;orthogonalLoop=1;jettySize=auto;html=1;" parent="1" source="eF_WOxwGu_8auV4gQNJt-36" target="eF_WOxwGu_8auV4gQNJt-29" edge="1">
          <mxGeometry relative="1" as="geometry" />
        </mxCell>
        <mxCell id="xEmapFu_POOf8D5ossAb-391" style="edgeStyle=orthogonalEdgeStyle;rounded=0;orthogonalLoop=1;jettySize=auto;html=1;" parent="1" source="eF_WOxwGu_8auV4gQNJt-36" target="eF_WOxwGu_8auV4gQNJt-32" edge="1">
          <mxGeometry relative="1" as="geometry" />
        </mxCell>
        <mxCell id="xEmapFu_POOf8D5ossAb-392" style="edgeStyle=orthogonalEdgeStyle;rounded=0;orthogonalLoop=1;jettySize=auto;html=1;" parent="1" source="eF_WOxwGu_8auV4gQNJt-36" target="eF_WOxwGu_8auV4gQNJt-31" edge="1">
          <mxGeometry relative="1" as="geometry" />
        </mxCell>
        <mxCell id="xEmapFu_POOf8D5ossAb-393" style="edgeStyle=orthogonalEdgeStyle;rounded=0;orthogonalLoop=1;jettySize=auto;html=1;" parent="1" source="eF_WOxwGu_8auV4gQNJt-36" target="eF_WOxwGu_8auV4gQNJt-33" edge="1">
          <mxGeometry relative="1" as="geometry" />
        </mxCell>
        <mxCell id="xEmapFu_POOf8D5ossAb-394" style="edgeStyle=orthogonalEdgeStyle;rounded=0;orthogonalLoop=1;jettySize=auto;html=1;" parent="1" source="eF_WOxwGu_8auV4gQNJt-36" target="eF_WOxwGu_8auV4gQNJt-34" edge="1">
          <mxGeometry relative="1" as="geometry" />
        </mxCell>
        <mxCell id="xEmapFu_POOf8D5ossAb-395" style="edgeStyle=orthogonalEdgeStyle;rounded=0;orthogonalLoop=1;jettySize=auto;html=1;" parent="1" source="eF_WOxwGu_8auV4gQNJt-36" target="eF_WOxwGu_8auV4gQNJt-35" edge="1">
          <mxGeometry relative="1" as="geometry" />
        </mxCell>
        <mxCell id="eF_WOxwGu_8auV4gQNJt-36" value="Condition" style="text;html=1;align=center;verticalAlign=middle;resizable=0;points=[];autosize=1;strokeColor=none;fillColor=none;fontSize=27;fontStyle=1;strokeWidth=9;" parent="1" vertex="1">
          <mxGeometry x="3470.000000000001" y="4390" width="140" height="50" as="geometry" />
        </mxCell>
        <mxCell id="xEmapFu_POOf8D5ossAb-396" style="edgeStyle=orthogonalEdgeStyle;rounded=0;orthogonalLoop=1;jettySize=auto;html=1;" parent="1" source="eF_WOxwGu_8auV4gQNJt-37" target="eF_WOxwGu_8auV4gQNJt-18" edge="1">
          <mxGeometry relative="1" as="geometry" />
        </mxCell>
        <mxCell id="xEmapFu_POOf8D5ossAb-397" style="edgeStyle=orthogonalEdgeStyle;rounded=0;orthogonalLoop=1;jettySize=auto;html=1;" parent="1" source="eF_WOxwGu_8auV4gQNJt-37" target="eF_WOxwGu_8auV4gQNJt-19" edge="1">
          <mxGeometry relative="1" as="geometry" />
        </mxCell>
        <mxCell id="xEmapFu_POOf8D5ossAb-398" style="edgeStyle=orthogonalEdgeStyle;rounded=0;orthogonalLoop=1;jettySize=auto;html=1;" parent="1" source="eF_WOxwGu_8auV4gQNJt-37" target="eF_WOxwGu_8auV4gQNJt-20" edge="1">
          <mxGeometry relative="1" as="geometry" />
        </mxCell>
        <mxCell id="xEmapFu_POOf8D5ossAb-399" style="edgeStyle=orthogonalEdgeStyle;rounded=0;orthogonalLoop=1;jettySize=auto;html=1;" parent="1" source="eF_WOxwGu_8auV4gQNJt-37" target="eF_WOxwGu_8auV4gQNJt-22" edge="1">
          <mxGeometry relative="1" as="geometry" />
        </mxCell>
        <mxCell id="xEmapFu_POOf8D5ossAb-400" style="edgeStyle=orthogonalEdgeStyle;rounded=0;orthogonalLoop=1;jettySize=auto;html=1;" parent="1" source="eF_WOxwGu_8auV4gQNJt-37" target="eF_WOxwGu_8auV4gQNJt-21" edge="1">
          <mxGeometry relative="1" as="geometry" />
        </mxCell>
        <mxCell id="xEmapFu_POOf8D5ossAb-401" style="edgeStyle=orthogonalEdgeStyle;rounded=0;orthogonalLoop=1;jettySize=auto;html=1;" parent="1" source="eF_WOxwGu_8auV4gQNJt-37" target="eF_WOxwGu_8auV4gQNJt-24" edge="1">
          <mxGeometry relative="1" as="geometry" />
        </mxCell>
        <mxCell id="xEmapFu_POOf8D5ossAb-402" style="edgeStyle=orthogonalEdgeStyle;rounded=0;orthogonalLoop=1;jettySize=auto;html=1;" parent="1" source="eF_WOxwGu_8auV4gQNJt-37" target="eF_WOxwGu_8auV4gQNJt-23" edge="1">
          <mxGeometry relative="1" as="geometry" />
        </mxCell>
        <mxCell id="xEmapFu_POOf8D5ossAb-403" style="edgeStyle=orthogonalEdgeStyle;rounded=0;orthogonalLoop=1;jettySize=auto;html=1;" parent="1" source="eF_WOxwGu_8auV4gQNJt-37" target="eF_WOxwGu_8auV4gQNJt-26" edge="1">
          <mxGeometry relative="1" as="geometry" />
        </mxCell>
        <mxCell id="xEmapFu_POOf8D5ossAb-404" style="edgeStyle=orthogonalEdgeStyle;rounded=0;orthogonalLoop=1;jettySize=auto;html=1;" parent="1" source="eF_WOxwGu_8auV4gQNJt-37" target="eF_WOxwGu_8auV4gQNJt-25" edge="1">
          <mxGeometry relative="1" as="geometry" />
        </mxCell>
        <mxCell id="xEmapFu_POOf8D5ossAb-405" style="edgeStyle=orthogonalEdgeStyle;rounded=0;orthogonalLoop=1;jettySize=auto;html=1;" parent="1" source="eF_WOxwGu_8auV4gQNJt-37" target="eF_WOxwGu_8auV4gQNJt-27" edge="1">
          <mxGeometry relative="1" as="geometry" />
        </mxCell>
        <mxCell id="xEmapFu_POOf8D5ossAb-406" style="edgeStyle=orthogonalEdgeStyle;rounded=0;orthogonalLoop=1;jettySize=auto;html=1;" parent="1" source="eF_WOxwGu_8auV4gQNJt-37" target="eF_WOxwGu_8auV4gQNJt-28" edge="1">
          <mxGeometry relative="1" as="geometry" />
        </mxCell>
        <mxCell id="xEmapFu_POOf8D5ossAb-407" style="edgeStyle=orthogonalEdgeStyle;rounded=0;orthogonalLoop=1;jettySize=auto;html=1;" parent="1" source="eF_WOxwGu_8auV4gQNJt-37" target="eF_WOxwGu_8auV4gQNJt-30" edge="1">
          <mxGeometry relative="1" as="geometry" />
        </mxCell>
        <mxCell id="xEmapFu_POOf8D5ossAb-408" style="edgeStyle=orthogonalEdgeStyle;rounded=0;orthogonalLoop=1;jettySize=auto;html=1;" parent="1" source="eF_WOxwGu_8auV4gQNJt-37" target="eF_WOxwGu_8auV4gQNJt-29" edge="1">
          <mxGeometry relative="1" as="geometry" />
        </mxCell>
        <mxCell id="xEmapFu_POOf8D5ossAb-409" style="edgeStyle=orthogonalEdgeStyle;rounded=0;orthogonalLoop=1;jettySize=auto;html=1;" parent="1" source="eF_WOxwGu_8auV4gQNJt-37" target="eF_WOxwGu_8auV4gQNJt-32" edge="1">
          <mxGeometry relative="1" as="geometry" />
        </mxCell>
        <mxCell id="xEmapFu_POOf8D5ossAb-410" style="edgeStyle=orthogonalEdgeStyle;rounded=0;orthogonalLoop=1;jettySize=auto;html=1;" parent="1" source="eF_WOxwGu_8auV4gQNJt-37" target="eF_WOxwGu_8auV4gQNJt-31" edge="1">
          <mxGeometry relative="1" as="geometry" />
        </mxCell>
        <mxCell id="xEmapFu_POOf8D5ossAb-411" style="edgeStyle=orthogonalEdgeStyle;rounded=0;orthogonalLoop=1;jettySize=auto;html=1;" parent="1" source="eF_WOxwGu_8auV4gQNJt-37" target="eF_WOxwGu_8auV4gQNJt-33" edge="1">
          <mxGeometry relative="1" as="geometry" />
        </mxCell>
        <mxCell id="xEmapFu_POOf8D5ossAb-412" style="edgeStyle=orthogonalEdgeStyle;rounded=0;orthogonalLoop=1;jettySize=auto;html=1;" parent="1" source="eF_WOxwGu_8auV4gQNJt-37" target="eF_WOxwGu_8auV4gQNJt-34" edge="1">
          <mxGeometry relative="1" as="geometry" />
        </mxCell>
        <mxCell id="xEmapFu_POOf8D5ossAb-413" style="edgeStyle=orthogonalEdgeStyle;rounded=0;orthogonalLoop=1;jettySize=auto;html=1;" parent="1" source="eF_WOxwGu_8auV4gQNJt-37" target="eF_WOxwGu_8auV4gQNJt-35" edge="1">
          <mxGeometry relative="1" as="geometry" />
        </mxCell>
        <mxCell id="xEmapFu_POOf8D5ossAb-414" style="edgeStyle=orthogonalEdgeStyle;rounded=0;orthogonalLoop=1;jettySize=auto;html=1;" parent="1" source="eF_WOxwGu_8auV4gQNJt-37" target="eF_WOxwGu_8auV4gQNJt-36" edge="1">
          <mxGeometry relative="1" as="geometry" />
        </mxCell>
        <mxCell id="eF_WOxwGu_8auV4gQNJt-37" value="Condition" style="text;html=1;align=center;verticalAlign=middle;resizable=0;points=[];autosize=1;strokeColor=none;fillColor=none;fontSize=27;fontStyle=1;strokeWidth=9;" parent="1" vertex="1">
          <mxGeometry x="3630.000000000001" y="2650" width="140" height="50" as="geometry" />
        </mxCell>
        <mxCell id="xEmapFu_POOf8D5ossAb-103" value="" style="edgeStyle=orthogonalEdgeStyle;rounded=0;orthogonalLoop=1;jettySize=auto;html=1;" parent="1" source="eF_WOxwGu_8auV4gQNJt-18" target="eF_WOxwGu_8auV4gQNJt-19" edge="1">
          <mxGeometry relative="1" as="geometry">
            <mxPoint x="160" y="2915" as="sourcePoint" />
            <mxPoint x="3735" y="2870" as="targetPoint" />
          </mxGeometry>
        </mxCell>
        <mxCell id="eF_WOxwGu_8auV4gQNJt-19" value="Private" style="text;html=1;align=center;verticalAlign=middle;resizable=0;points=[];autosize=1;strokeColor=none;fillColor=none;fontSize=27;fontStyle=1;strokeWidth=9;" parent="1" vertex="1">
          <mxGeometry x="189.99999999999997" y="2940" width="110" height="50" as="geometry" />
        </mxCell>
      </root>
    </mxGraphModel>
  </diagram>
</mxfile>
